<?xml version="1.0" encoding="us-ascii" standalone="no"?><svg xmlns="http://www.w3.org/2000/svg" xmlns:xlink="http://www.w3.org/1999/xlink" contentStyleType="text/css" height="500px" preserveAspectRatio="none" style="width:845px;height:500px;background:#FFFFFF;" version="1.1" viewBox="0 0 845 500" width="845px" zoomAndPan="magnify"><defs/><g><line style="stroke:#000000;stroke-width:1.0;" x1="40" x2="40" y1="85.0679" y2="416.4221"/><line style="stroke:#000000;stroke-width:1.0;" x1="437" x2="437" y1="85.0679" y2="416.4221"/><line style="stroke:#000000;stroke-width:1.0;" x1="719.5" x2="719.5" y1="85.0679" y2="416.4221"/><line style="stroke:#000000;stroke-width:1.0;" x1="814.5" x2="814.5" y1="85.0679" y2="416.4221"/><text fill="#000000" font-family="Verdana" font-size="14" lengthAdjust="spacing" textLength="54" x="10" y="80.9659">Teacher</text><ellipse cx="40" cy="14" fill="#FFFFFF" rx="8" ry="8" style="stroke:#000000;stroke-width:1.0;"/><path d="M40,22 L40,49 M27,30 L53,30 M40,49 L27,64 M40,49 L53,64 " fill="none" style="stroke:#000000;stroke-width:1.0;"/><text fill="#000000" font-family="Verdana" font-size="14" lengthAdjust="spacing" textLength="54" x="10" y="430.388">Teacher</text><ellipse cx="40" cy="443.49" fill="#FFFFFF" rx="8" ry="8" style="stroke:#000000;stroke-width:1.0;"/><path d="M40,451.49 L40,478.49 M27,459.49 L53,459.49 M40,478.49 L27,493.49 M40,478.49 L53,493.49 " fill="none" style="stroke:#000000;stroke-width:1.0;"/><rect fill="#FFFFFF" height="33.0679" rx="2.5" ry="2.5" style="stroke:#000000;stroke-width:1.0;" width="132" x="371" y="51"/><text fill="#000000" font-family="Verdana" font-size="14" lengthAdjust="spacing" textLength="118" x="378" y="72.9659">Backend (FastAPI)</text><rect fill="#FFFFFF" height="33.0679" rx="2.5" ry="2.5" style="stroke:#000000;stroke-width:1.0;" width="132" x="371" y="415.4221"/><text fill="#000000" font-family="Verdana" font-size="14" lengthAdjust="spacing" textLength="118" x="378" y="437.388">Backend (FastAPI)</text><rect fill="#FFFFFF" height="33.0679" rx="2.5" ry="2.5" style="stroke:#000000;stroke-width:1.0;" width="91" x="674.5" y="51"/><text fill="#000000" font-family="Verdana" font-size="14" lengthAdjust="spacing" textLength="77" x="681.5" y="72.9659">OpenAI API</text><rect fill="#FFFFFF" height="33.0679" rx="2.5" ry="2.5" style="stroke:#000000;stroke-width:1.0;" width="91" x="674.5" y="415.4221"/><text fill="#000000" font-family="Verdana" font-size="14" lengthAdjust="spacing" textLength="77" x="681.5" y="437.388">OpenAI API</text><text fill="#000000" font-family="Verdana" font-size="14" lengthAdjust="spacing" textLength="53" x="785.5" y="80.9659">Student</text><ellipse cx="815" cy="14" fill="#FFFFFF" rx="8" ry="8" style="stroke:#000000;stroke-width:1.0;"/><path d="M815,22 L815,49 M802,30 L828,30 M815,49 L802,64 M815,49 L828,64 " fill="none" style="stroke:#000000;stroke-width:1.0;"/><text fill="#000000" font-family="Verdana" font-size="14" lengthAdjust="spacing" textLength="53" x="785.5" y="430.388">Student</text><ellipse cx="815" cy="443.49" fill="#FFFFFF" rx="8" ry="8" style="stroke:#000000;stroke-width:1.0;"/><path d="M815,451.49 L815,478.49 M802,459.49 L828,459.49 M815,478.49 L802,493.49 M815,478.49 L828,493.49 " fill="none" style="stroke:#000000;stroke-width:1.0;"/><polygon fill="#000000" points="425,114.7739,435,118.7739,425,122.7739,429,118.7739" style="stroke:#000000;stroke-width:1.0;"/><line style="stroke:#000000;stroke-width:1.0;" x1="40" x2="431" y1="118.7739" y2="118.7739"/><text fill="#000000" font-family="Verdana" font-size="13" lengthAdjust="spacing" textLength="193" x="47" y="112.9649">WS Send {type: "generate_quiz"}</text><polygon fill="#000000" points="708,146.4799,718,150.4799,708,154.4799,712,150.4799" style="stroke:#000000;stroke-width:1.0;"/><line style="stroke:#000000;stroke-width:1.0;" x1="437" x2="714" y1="150.4799" y2="150.4799"/><text fill="#000000" font-family="Verdana" font-size="13" lengthAdjust="spacing" textLength="259" x="444" y="144.6709">POST to LLM API with lecture notes context</text><polygon fill="#000000" points="448,178.186,438,182.186,448,186.186,444,182.186" style="stroke:#000000;stroke-width:1.0;"/><line style="stroke:#000000;stroke-width:1.0;stroke-dasharray:2.0,2.0;" x1="442" x2="719" y1="182.186" y2="182.186"/><text fill="#000000" font-family="Verdana" font-size="13" lengthAdjust="spacing" textLength="171" x="454" y="176.377">Return Questions &amp; Answers</text><line style="stroke:#000000;stroke-width:1.0;" x1="437" x2="479" y1="213.892" y2="213.892"/><line style="stroke:#000000;stroke-width:1.0;" x1="479" x2="479" y1="213.892" y2="226.892"/><line style="stroke:#000000;stroke-width:1.0;" x1="438" x2="479" y1="226.892" y2="226.892"/><polygon fill="#000000" points="448,222.892,438,226.892,448,230.892,444,226.892" style="stroke:#000000;stroke-width:1.0;"/><text fill="#000000" font-family="Verdana" font-size="13" lengthAdjust="spacing" textLength="156" x="444" y="208.083">Save Quiz to Session State</text><polygon fill="#000000" points="51,254.598,41,258.598,51,262.598,47,258.598" style="stroke:#000000;stroke-width:1.0;"/><line style="stroke:#000000;stroke-width:1.0;" x1="45" x2="436" y1="258.598" y2="258.598"/><text fill="#000000" font-family="Verdana" font-size="13" lengthAdjust="spacing" textLength="299" x="57" y="252.789">WS Emit {type: "quiz_ready", payload: {questions}}</text><polygon fill="#000000" points="803,286.304,813,290.304,803,294.304,807,290.304" style="stroke:#000000;stroke-width:1.0;"/><line style="stroke:#000000;stroke-width:1.0;" x1="437" x2="809" y1="290.304" y2="290.304"/><text fill="#000000" font-family="Verdana" font-size="13" lengthAdjust="spacing" textLength="299" x="444" y="284.495">WS Emit {type: "quiz_ready", payload: {questions}}</text><polygon fill="#000000" points="448,318.01,438,322.01,448,326.01,444,322.01" style="stroke:#000000;stroke-width:1.0;"/><line style="stroke:#000000;stroke-width:1.0;" x1="442" x2="814" y1="322.01" y2="322.01"/><text fill="#000000" font-family="Verdana" font-size="13" lengthAdjust="spacing" textLength="300" x="454" y="316.201">WS Send {type: "submit_quiz", payload: {answers}}</text><line style="stroke:#000000;stroke-width:1.0;" x1="437" x2="479" y1="353.716" y2="353.716"/><line style="stroke:#000000;stroke-width:1.0;" x1="479" x2="479" y1="353.716" y2="366.716"/><line style="stroke:#000000;stroke-width:1.0;" x1="438" x2="479" y1="366.716" y2="366.716"/><polygon fill="#000000" points="448,362.716,438,366.716,448,370.716,444,366.716" style="stroke:#000000;stroke-width:1.0;"/><text fill="#000000" font-family="Verdana" font-size="13" lengthAdjust="spacing" textLength="186" x="444" y="347.907">Grade against generated rubric</text><polygon fill="#000000" points="51,394.4221,41,398.4221,51,402.4221,47,398.4221" style="stroke:#000000;stroke-width:1.0;"/><line style="stroke:#000000;stroke-width:1.0;" x1="45" x2="436" y1="398.4221" y2="398.4221"/><text fill="#000000" font-family="Verdana" font-size="13" lengthAdjust="spacing" textLength="373" x="57" y="392.6131">WS Emit {type: "participant_quiz_completed", payload: {score}}</text><!--SRC=[dP7DJW8n4CVlVOfn3qOJUO4zcEmcQZR1W7OJZsJeJg1nQKixAmBXtPrbmS31YzVEx_ynqnjUqeeWj6YTKcZOHwW9pP8YO89Q1OniZGte6B8IpIUv1kwUCN4nhUwp7YgleKaWLrGWu-Eqg4wschk6190thLGDeqSeS_ZGe7lBFMy3vP0jo554fjcwixlieCgUAweSfXDT0tiOZrzxRzXONa9BXhj8u3nJ0kCTqpShIHyDxkyaOmTl7IMstYMuXSAb3SKq60kYyOi4iBlUN5DAmabNgJ0WzR7ZqyhoRyU-sYmIDjli0G9kMuzD3llrEULmggt_9LNwZzEaRYvMms4knJXiT4uLvKl4XW0Nygc9uNpI1c8tZzRykTV5DnvJPiQlGakYlCfBnaUIj1y0]--></g></svg>