<?xml version="1.0" encoding="us-ascii" standalone="no"?><svg xmlns="http://www.w3.org/2000/svg" xmlns:xlink="http://www.w3.org/1999/xlink" contentStyleType="text/css" height="589px" preserveAspectRatio="none" style="width:560px;height:589px;background:#FFFFFF;" version="1.1" viewBox="0 0 560 589" width="560px" zoomAndPan="magnify"><defs/><g><!--cluster Client Side--><g id="cluster_Client Side"><polygon fill="#FFFFFF" points="21,21,31,11,402,11,402,109.07,392,119.07,21,119.07,21,21" style="stroke:#000000;stroke-width:1.0;"/><line style="stroke:#000000;stroke-width:1.0;" x1="392" x2="402" y1="21" y2="11"/><line style="stroke:#000000;stroke-width:1.0;" x1="21" x2="392" y1="21" y2="21"/><line style="stroke:#000000;stroke-width:1.0;" x1="392" x2="392" y1="21" y2="119.07"/><text fill="#000000" font-family="Verdana" font-size="14" font-weight="bold" lengthAdjust="spacing" textLength="73" x="171" y="38.9659">Client Side</text></g><!--cluster Deployment Environment / VPS--><g id="cluster_Deployment Environment / VPS"><polygon fill="#FFFFFF" points="48,180.07,58,170.07,526,170.07,526,449.2,516,459.2,48,459.2,48,180.07" style="stroke:#000000;stroke-width:1.0;"/><line style="stroke:#000000;stroke-width:1.0;" x1="516" x2="526" y1="180.07" y2="170.07"/><line style="stroke:#000000;stroke-width:1.0;" x1="48" x2="516" y1="180.07" y2="180.07"/><line style="stroke:#000000;stroke-width:1.0;" x1="516" x2="516" y1="180.07" y2="459.2"/><text fill="#000000" font-family="Verdana" font-size="14" font-weight="bold" lengthAdjust="spacing" textLength="219" x="173.5" y="198.0359">Deployment Environment / VPS</text></g><!--cluster Docker Compose--><g id="cluster_Docker Compose"><polygon fill="#FFFFFF" points="72,337.13,82,327.13,502,327.13,502,425.2,492,435.2,72,435.2,72,337.13" style="stroke:#000000;stroke-width:1.0;"/><line style="stroke:#000000;stroke-width:1.0;" x1="492" x2="502" y1="337.13" y2="327.13"/><line style="stroke:#000000;stroke-width:1.0;" x1="72" x2="492" y1="337.13" y2="337.13"/><line style="stroke:#000000;stroke-width:1.0;" x1="492" x2="492" y1="337.13" y2="435.2"/><text fill="#000000" font-family="Verdana" font-size="14" font-weight="bold" lengthAdjust="spacing" textLength="118" x="224" y="355.0959">Docker Compose</text></g><!--entity Browser--><g id="elem_Browser"><rect fill="#FFFFFF" height="49.0679" rx="2.5" ry="2.5" style="stroke:#000000;stroke-width:1.0;" width="129" x="37.5" y="54"/><rect fill="#FFFFFF" height="10" style="stroke:#000000;stroke-width:1.0;" width="15" x="146.5" y="59"/><rect fill="#FFFFFF" height="2" style="stroke:#000000;stroke-width:1.0;" width="4" x="144.5" y="61"/><rect fill="#FFFFFF" height="2" style="stroke:#000000;stroke-width:1.0;" width="4" x="144.5" y="65"/><text fill="#000000" font-family="Verdana" font-size="14" lengthAdjust="spacing" textLength="89" x="52.5" y="88.9659">Web Browser</text></g><!--entity DesktopApp--><g id="elem_DesktopApp"><rect fill="#FFFFFF" height="49.0679" rx="2.5" ry="2.5" style="stroke:#000000;stroke-width:1.0;" width="184" x="202" y="54"/><rect fill="#FFFFFF" height="10" style="stroke:#000000;stroke-width:1.0;" width="15" x="366" y="59"/><rect fill="#FFFFFF" height="2" style="stroke:#000000;stroke-width:1.0;" width="4" x="364" y="61"/><rect fill="#FFFFFF" height="2" style="stroke:#000000;stroke-width:1.0;" width="4" x="364" y="65"/><text fill="#000000" font-family="Verdana" font-size="14" lengthAdjust="spacing" textLength="144" x="217" y="88.9659">Electron Desktop App</text></g><!--entity Caddy--><g id="elem_Caddy"><rect fill="#FFFFFF" height="49.0679" rx="2.5" ry="2.5" style="stroke:#000000;stroke-width:1.0;" width="179" x="123.5" y="213.07"/><rect fill="#FFFFFF" height="10" style="stroke:#000000;stroke-width:1.0;" width="15" x="282.5" y="218.07"/><rect fill="#FFFFFF" height="2" style="stroke:#000000;stroke-width:1.0;" width="4" x="280.5" y="220.07"/><rect fill="#FFFFFF" height="2" style="stroke:#000000;stroke-width:1.0;" width="4" x="280.5" y="224.07"/><text fill="#000000" font-family="Verdana" font-size="14" lengthAdjust="spacing" textLength="139" x="138.5" y="248.0359">Caddy Reverse Proxy</text></g><!--entity FrontendContainer--><g id="elem_FrontendContainer"><rect fill="#FFFFFF" height="49.0679" rx="2.5" ry="2.5" style="stroke:#000000;stroke-width:1.0;" width="153" x="88.5" y="370.13"/><rect fill="#FFFFFF" height="10" style="stroke:#000000;stroke-width:1.0;" width="15" x="221.5" y="375.13"/><rect fill="#FFFFFF" height="2" style="stroke:#000000;stroke-width:1.0;" width="4" x="219.5" y="377.13"/><rect fill="#FFFFFF" height="2" style="stroke:#000000;stroke-width:1.0;" width="4" x="219.5" y="381.13"/><text fill="#000000" font-family="Verdana" font-size="14" lengthAdjust="spacing" textLength="113" x="103.5" y="405.0959">Frontend (Nginx)</text></g><!--entity BackendContainer--><g id="elem_BackendContainer"><rect fill="#FFFFFF" height="49.0679" rx="2.5" ry="2.5" style="stroke:#000000;stroke-width:1.0;" width="209" x="276.5" y="370.13"/><rect fill="#FFFFFF" height="10" style="stroke:#000000;stroke-width:1.0;" width="15" x="465.5" y="375.13"/><rect fill="#FFFFFF" height="2" style="stroke:#000000;stroke-width:1.0;" width="4" x="463.5" y="377.13"/><rect fill="#FFFFFF" height="2" style="stroke:#000000;stroke-width:1.0;" width="4" x="463.5" y="381.13"/><text fill="#000000" font-family="Verdana" font-size="14" lengthAdjust="spacing" textLength="169" x="291.5" y="405.0959">Backend (FastAPI/Python)</text></g><!--entity SQLite--><g id="elem_SQLite"><path d="M226,534.7 C226,524.7 291,524.7 291,524.7 C291,524.7 356,524.7 356,534.7 L356,562.7679 C356,572.7679 291,572.7679 291,572.7679 C291,572.7679 226,572.7679 226,562.7679 L226,534.7 " fill="#FFFFFF" style="stroke:#000000;stroke-width:1.0;"/><path d="M226,534.7 C226,544.7 291,544.7 291,544.7 C291,544.7 356,544.7 356,534.7 " fill="none" style="stroke:#000000;stroke-width:1.0;"/><text fill="#000000" font-family="Verdana" font-size="14" lengthAdjust="spacing" textLength="110" x="236" y="563.6659">SQLite Database</text></g><!--entity OpenAI--><g id="elem_OpenAI"><path d="M400.8182,534.182 C403.839,528.6228 408.7668,528.9067 412.4028,533.4784 C415.739,528.1274 420.4988,528.006 424.0054,533.2925 C427.4052,527.5836 431.7422,526.1271 436.6803,531.5392 C440.3677,526.1449 445.3683,526.2151 448.7927,531.8286 C452.1825,527.1778 455.7604,527.0342 459.4208,531.5135 C462.8543,525.4988 467.6928,524.8815 471.8086,530.8055 C475.7275,524.8956 479.3426,524.9009 483.1012,530.9566 C487.9831,525.0142 491.6547,525.5681 495.0811,532.3291 C499.0599,525.8404 503.5132,525.6154 508.1548,531.6363 C512.6926,525.6279 516.7301,526.5359 520.3249,532.5878 C523.9883,528.2396 528.7462,527.4482 531.4594,533.5957 C534.9861,528.0635 539.6555,527.066 543.5195,533.2485 C553.2558,537.5784 553.293,544.09 545.3499,550.316 C552.6997,556.1006 552.6524,562.457 544.2496,567.2161 C540.7668,574.6966 535.7698,575.2674 530.7938,568.6403 C527.3624,574.1532 522.125,574.8666 518.8954,568.4392 C516.3373,574.9517 511.8903,574.8103 507.6168,570.1747 C505.1778,575.2214 500.9109,576.0477 496.9771,571.9055 C492.8427,578.2084 488.5644,578.1856 483.8607,572.53 C480.6705,577.6638 477.2568,579.125 472.9585,573.6709 C468.3249,580.3936 462.6044,578.8599 459.776,571.9281 C456.0243,577.1621 451.1695,576.4264 448.7609,570.5916 C444.8756,576.953 439.9205,575.5296 436.2784,570.3291 C431.4586,575.7531 427.5681,575.2456 424.116,568.914 C420.0365,573.242 416.6775,573.2603 413.5373,567.8895 C408.6623,573.8593 404.4416,572.292 400.9487,566.4202 C390.0531,564.9053 387.3989,558.2956 392.0706,548.8945 C386.3602,540.3201 391.8625,534.0365 400.8182,534.182 " fill="#FFFFFF" style="stroke:#000000;stroke-width:1.0;"/><text fill="#000000" font-family="Verdana" font-size="14" lengthAdjust="spacing" textLength="129" x="406.5" y="554.1659">OpenAI API Service</text></g><!--link Browser to Caddy--><g id="link_Browser_Caddy"><path d="M118.86,103.39 C139.78,133 171.7863,178.2908 192.7063,207.8808 " fill="none" id="Browser-to-Caddy" style="stroke:#000000;stroke-width:1.0;"/><polygon fill="#000000" points="196.17,212.78,194.2405,203.122,193.2836,208.6973,187.7082,207.7403,196.17,212.78" style="stroke:#000000;stroke-width:1.0;"/><text fill="#000000" font-family="Verdana" font-size="13" lengthAdjust="spacing" textLength="39" x="155.17" y="149.967">HTTPS</text></g><!--link DesktopApp to Caddy--><g id="link_DesktopApp_Caddy"><path d="M281.7,103.39 C266.43,133 243.3015,177.8581 228.0315,207.4481 " fill="none" id="DesktopApp-to-Caddy" style="stroke:#000000;stroke-width:1.0;"/><polygon fill="#000000" points="225.28,212.78,232.9619,206.6165,227.5729,208.3368,225.8527,202.9478,225.28,212.78" style="stroke:#000000;stroke-width:1.0;"/><text fill="#000000" font-family="Verdana" font-size="13" lengthAdjust="spacing" textLength="39" x="264.14" y="149.967">HTTPS</text></g><!--link Caddy to FrontendContainer--><g id="link_Caddy_FrontendContainer"><path d="M205.61,262.49 C196.59,291.63 183.2054,334.8687 174.1754,364.0187 " fill="none" id="Caddy-to-FrontendContainer" style="stroke:#000000;stroke-width:1.0;"/><polygon fill="#000000" points="172.4,369.75,178.884,362.3367,173.8795,364.9739,171.2423,359.9694,172.4,369.75" style="stroke:#000000;stroke-width:1.0;"/><text fill="#000000" font-family="Verdana" font-size="13" lengthAdjust="spacing" textLength="65" x="197.1" y="307.027">Proxy Pass</text></g><!--link Caddy to BackendContainer--><g id="link_Caddy_BackendContainer"><path d="M238.88,262.49 C270.45,291.63 319.1011,336.5304 350.6811,365.6804 " fill="none" id="Caddy-to-BackendContainer" style="stroke:#000000;stroke-width:1.0;"/><polygon fill="#000000" points="355.09,369.75,351.1898,360.7063,351.4159,366.3586,345.7636,366.5848,355.09,369.75" style="stroke:#000000;stroke-width:1.0;"/><text fill="#000000" font-family="Verdana" font-size="13" lengthAdjust="spacing" textLength="65" x="287.94" y="307.027">Proxy Pass</text></g><!--link BackendContainer to SQLite--><g id="link_BackendContainer_SQLite"><path d="M366.94,419.43 C349.98,448.08 324.7154,490.7662 307.8754,519.2262 " fill="none" id="BackendContainer-to-SQLite" style="stroke:#000000;stroke-width:1.0;stroke-dasharray:7.0,7.0;"/><polygon fill="#000000" points="304.82,524.39,312.8456,518.6813,307.3662,520.0869,305.9606,514.6074,304.82,524.39" style="stroke:#000000;stroke-width:1.0;"/><text fill="#000000" font-family="Verdana" font-size="13" lengthAdjust="spacing" textLength="67" x="334.3" y="490.097">Read/Write</text></g><!--link BackendContainer to OpenAI--><g id="link_BackendContainer_OpenAI"><path d="M395.06,419.43 C411.92,447.91 436.954,490.2066 453.834,518.7266 " fill="none" id="BackendContainer-to-OpenAI" style="stroke:#000000;stroke-width:1.0;stroke-dasharray:7.0,7.0;"/><polygon fill="#000000" points="456.89,523.89,455.7482,514.1076,454.3433,519.5872,448.8637,518.1823,456.89,523.89" style="stroke:#000000;stroke-width:1.0;"/><text fill="#000000" font-family="Verdana" font-size="13" lengthAdjust="spacing" textLength="52" x="437.71" y="490.097">REST API</text></g><!--SRC=[RP11Jm8n48Nl_HNZdlG0t3sGB0j44gChI-HWF9JjH1fsswQjoCRmtvrsIqGXsMGxCzzxdTSRlyKMmJHSAiQK5WXPqKXK7YefC8Dl1l2snWrChFvoQD-1kzCvZ6ODrjvg1LDqEwyDvCP49jLKikF9UOgcqLqRt6TgBqaMpoDuBQjqLS65w629UxGEeRJwq4Mxs2U0lkIbwnrQA7Hhj4kBadvEfXwLWDkd3waETr5yQXRqew1nSs8dd2m2EkVEv-LYL7P-grMlISDpoJ4a4Tpp3QVTikhbKNg4QMfaGTNtMDteJm7Piq6LBu2ieKAxbtKFzMt6qZF2O33kyy4zFAnMPSL-7-_AaFLb65m48oY-6PJSkJFmVvg_7BiO3uVZb8N89N8nMjiGx2gOOX8ugrOXxGy0]--></g></svg>