<?plantuml 1.2026.2?><svg xmlns="http://www.w3.org/2000/svg" xmlns:xlink="http://www.w3.org/1999/xlink" contentStyleType="text/css" data-diagram-type="DESCRIPTION" height="868px" preserveAspectRatio="none" style="width:1701px;height:868px;background:#FFFFFF;" version="1.1" viewBox="0 0 1701 868" width="1701px" zoomAndPan="magnify"><defs/><g><!--cluster Client Side--><g class="cluster" data-qualified-name="Client Side" data-source-line="3" id="ent0002"><polygon fill="#FFFFFF" points="548,36.88,558,26.88,925,26.88,925,124.95,915,134.95,548,134.95,548,36.88" style="stroke:#000000;stroke-width:1;"/><line style="stroke:#000000;stroke-width:1;" x1="915" x2="925" y1="36.88" y2="26.88"/><line style="stroke:#000000;stroke-width:1;" x1="548" x2="915" y1="36.88" y2="36.88"/><line style="stroke:#000000;stroke-width:1;" x1="915" x2="915" y1="36.88" y2="134.95"/><text fill="#000000" font-family="Verdana" font-size="14" font-weight="bold" lengthAdjust="spacing" textLength="73.6257" x="695.6871" y="54.8459">Client Side</text></g><!--cluster GitHub--><g class="cluster" data-qualified-name="GitHub" data-source-line="8" id="ent0005"><polygon fill="#FFFFFF" points="21,21,31,11,524,11,524,140.83,514,150.83,21,150.83,21,21" style="stroke:#000000;stroke-width:1;"/><line style="stroke:#000000;stroke-width:1;" x1="514" x2="524" y1="21" y2="11"/><line style="stroke:#000000;stroke-width:1;" x1="21" x2="514" y1="21" y2="21"/><line style="stroke:#000000;stroke-width:1;" x1="514" x2="514" y1="21" y2="150.83"/><text fill="#000000" font-family="Verdana" font-size="14" font-weight="bold" lengthAdjust="spacing" textLength="49.0558" x="243.9721" y="38.9659">GitHub</text></g><!--cluster VPS--><g class="cluster" data-qualified-name="VPS" data-source-line="18" id="ent0010"><polygon fill="#FFFFFF" points="266,255.83,276,245.83,1023,245.83,1023,841.27,1013,851.27,266,851.27,266,255.83" style="stroke:#000000;stroke-width:1;"/><line style="stroke:#000000;stroke-width:1;" x1="1013" x2="1023" y1="255.83" y2="245.83"/><line style="stroke:#000000;stroke-width:1;" x1="266" x2="1013" y1="255.83" y2="255.83"/><line style="stroke:#000000;stroke-width:1;" x1="1013" x2="1013" y1="255.83" y2="851.27"/><text fill="#000000" font-family="Verdana" font-size="14" font-weight="bold" lengthAdjust="spacing" textLength="25.5079" x="627.746" y="273.7959">VPS</text></g><!--cluster Docker Compose (production)--><g class="cluster" data-qualified-name="VPS.Docker Compose .production." data-source-line="25" id="ent0015"><polygon fill="#FFFFFF" points="600,449.43,610,439.43,991,439.43,991,684.63,981,694.63,600,694.63,600,449.43" style="stroke:#000000;stroke-width:1;"/><line style="stroke:#000000;stroke-width:1;" x1="981" x2="991" y1="449.43" y2="439.43"/><line style="stroke:#000000;stroke-width:1;" x1="600" x2="981" y1="449.43" y2="449.43"/><line style="stroke:#000000;stroke-width:1;" x1="981" x2="981" y1="449.43" y2="694.63"/><text fill="#000000" font-family="Verdana" font-size="14" font-weight="bold" lengthAdjust="spacing" textLength="207.8012" x="687.5994" y="467.3959">Docker Compose (production)</text></g><!--cluster Docker Compose dev\n(shared vialive network)--><g class="cluster" data-qualified-name="VPS.Docker Compose dev.n.shared vialive network." data-source-line="31" id="ent0019"><polygon fill="#FFFFFF" points="306,439.96,316,429.96,576,429.96,576,684.63,566,694.63,306,694.63,306,439.96" style="stroke:#000000;stroke-width:1;"/><line style="stroke:#000000;stroke-width:1;" x1="566" x2="576" y1="439.96" y2="429.96"/><line style="stroke:#000000;stroke-width:1;" x1="306" x2="566" y1="439.96" y2="439.96"/><line style="stroke:#000000;stroke-width:1;" x1="566" x2="566" y1="439.96" y2="694.63"/><text fill="#000000" font-family="Verdana" font-size="14" font-weight="bold" lengthAdjust="spacing" textLength="146.3694" x="363.8153" y="457.9259">Docker Compose dev</text><text fill="#000000" font-family="Verdana" font-size="14" font-weight="bold" lengthAdjust="spacing" textLength="169.2314" x="352.3843" y="476.9939">(shared vialive network)</text></g><!--entity Browser--><g class="entity" data-qualified-name="Client Side.Browser" data-source-line="4" id="ent0003"><rect fill="#FFFFFF" height="49.0679" rx="2.5" ry="2.5" style="stroke:#000000;stroke-width:1;" width="127.9057" x="781.05" y="69.88"/><rect fill="#FFFFFF" height="10" style="stroke:#000000;stroke-width:1;" width="15" x="888.9557" y="74.88"/><rect fill="#FFFFFF" height="2" style="stroke:#000000;stroke-width:1;" width="4" x="886.9557" y="76.88"/><rect fill="#FFFFFF" height="2" style="stroke:#000000;stroke-width:1;" width="4" x="886.9557" y="80.88"/><text fill="#000000" font-family="Verdana" font-size="14" lengthAdjust="spacing" textLength="87.9057" x="796.05" y="104.8459">Web Browser</text></g><!--entity DesktopApp--><g class="entity" data-qualified-name="Client Side.DesktopApp" data-source-line="5" id="ent0004"><rect fill="#FFFFFF" height="49.0679" rx="2.5" ry="2.5" style="stroke:#000000;stroke-width:1;" width="181.8475" x="564.08" y="69.88"/><rect fill="#FFFFFF" height="10" style="stroke:#000000;stroke-width:1;" width="15" x="725.9275" y="74.88"/><rect fill="#FFFFFF" height="2" style="stroke:#000000;stroke-width:1;" width="4" x="723.9275" y="76.88"/><rect fill="#FFFFFF" height="2" style="stroke:#000000;stroke-width:1;" width="4" x="723.9275" y="80.88"/><text fill="#000000" font-family="Verdana" font-size="14" lengthAdjust="spacing" textLength="141.8475" x="579.08" y="104.8459">Electron Desktop App</text></g><!--entity CICD--><g class="entity" data-qualified-name="GitHub.CICD" data-source-line="9" id="ent0006"><rect fill="#FFFFFF" height="49.0679" rx="2.5" ry="2.5" style="stroke:#000000;stroke-width:1;" width="179.8035" x="37.1" y="69.88"/><rect fill="#FFFFFF" height="10" style="stroke:#000000;stroke-width:1;" width="15" x="196.9035" y="74.88"/><rect fill="#FFFFFF" height="2" style="stroke:#000000;stroke-width:1;" width="4" x="194.9035" y="76.88"/><rect fill="#FFFFFF" height="2" style="stroke:#000000;stroke-width:1;" width="4" x="194.9035" y="80.88"/><text fill="#000000" font-family="Verdana" font-size="14" lengthAdjust="spacing" textLength="139.8035" x="52.1" y="104.8459">GitHub Actions CI/CD</text></g><g class="entity" data-qualified-name="GitHub.GMN7" data-source-line="11" id="ent0008"><path d="M252.25,54 L252.25,90.42 L216.93,94.42 L252.25,98.42 L252.25,134.8241 A0,0 0 0 0 252.25,134.8241 L507.7558,134.8241 A0,0 0 0 0 507.7558,134.8241 L507.7558,64 L497.7558,54 L252.25,54 A0,0 0 0 0 252.25,54" fill="#FFFFFF" style="stroke:#000000;stroke-width:1;"/><path d="M497.7558,54 L497.7558,64 L507.7558,64 L497.7558,54" fill="#FFFFFF" style="stroke:#000000;stroke-width:1;"/><text fill="#000000" font-family="Verdana" font-size="13" lengthAdjust="spacing" textLength="142.0121" x="258.25" y="72.897">1. test-backend (pytest)</text><text fill="#000000" font-family="Verdana" font-size="13" lengthAdjust="spacing" textLength="139.3082" x="258.25" y="90.603">2. test-frontend (vitest)</text><text fill="#000000" font-family="Verdana" font-size="13" lengthAdjust="spacing" textLength="191.1768" x="258.25" y="108.309">3. deploy via SSH (main &#8594; app/)</text><text fill="#000000" font-family="Verdana" font-size="13" lengthAdjust="spacing" textLength="234.5058" x="258.25" y="126.0151">4. deploy-dev via SSH (dev &#8594; app-dev/)</text></g><!--entity Caddy--><g class="entity" data-qualified-name="VPS.Caddy" data-source-line="19" id="ent0011"><rect fill="#FFFFFF" height="68.1358" rx="2.5" ry="2.5" style="stroke:#000000;stroke-width:1;" width="177.6055" x="367.2" y="296.83"/><rect fill="#FFFFFF" height="10" style="stroke:#000000;stroke-width:1;" width="15" x="524.8055" y="301.83"/><rect fill="#FFFFFF" height="2" style="stroke:#000000;stroke-width:1;" width="4" x="522.8055" y="303.83"/><rect fill="#FFFFFF" height="2" style="stroke:#000000;stroke-width:1;" width="4" x="522.8055" y="307.83"/><text fill="#000000" font-family="Verdana" font-size="14" lengthAdjust="spacing" textLength="137.6055" x="382.2" y="331.7959">Caddy Reverse Proxy</text><text fill="#000000" font-family="Verdana" font-size="14" lengthAdjust="spacing" textLength="87.7097" x="382.2" y="350.8639">(ZeroSSL TLS)</text></g><g class="entity" data-qualified-name="VPS.GMN12" data-source-line="21" id="ent0013"><path d="M579.98,308.19 L579.98,326.9 L544.87,330.9 L579.98,334.9 L579.98,353.602 A0,0 0 0 0 579.98,353.602 L832.0148,353.602 A0,0 0 0 0 832.0148,353.602 L832.0148,318.19 L822.0148,308.19 L579.98,308.19 A0,0 0 0 0 579.98,308.19" fill="#FFFFFF" style="stroke:#000000;stroke-width:1;"/><path d="M822.0148,308.19 L822.0148,318.19 L832.0148,318.19 L822.0148,308.19" fill="#FFFFFF" style="stroke:#000000;stroke-width:1;"/><text fill="#000000" font-family="Verdana" font-size="13" lengthAdjust="spacing" textLength="179.5027" x="585.98" y="327.087">vialive.libreuni.com &#8594; web:80</text><text fill="#000000" font-family="Verdana" font-size="13" lengthAdjust="spacing" textLength="231.0348" x="585.98" y="344.793">dev.vialive.libreuni.com &#8594; web-dev:80</text></g><!--entity SQLite--><g class="entity" data-qualified-name="VPS.SQLite" data-source-line="36" id="ent0022"><path d="M817.49,770.13 C817.49,760.13 870.0008,760.13 870.0008,760.13 C870.0008,760.13 922.5117,760.13 922.5117,770.13 L922.5117,817.2658 C922.5117,827.2658 870.0008,827.2658 870.0008,827.2658 C870.0008,827.2658 817.49,827.2658 817.49,817.2658 L817.49,770.13" fill="#FFFFFF" style="stroke:#000000;stroke-width:1;"/><path d="M817.49,770.13 C817.49,780.13 870.0008,780.13 870.0008,780.13 C870.0008,780.13 922.5117,780.13 922.5117,770.13" fill="none" style="stroke:#000000;stroke-width:1;"/><text fill="#000000" font-family="Verdana" font-size="14" lengthAdjust="spacing" textLength="42.5178" x="827.49" y="799.0959">SQLite</text><text fill="#000000" font-family="Verdana" font-size="14" lengthAdjust="spacing" textLength="85.0217" x="827.49" y="818.1639">(data.sqlite3)</text></g><!--entity SQLiteDev--><g class="entity" data-qualified-name="VPS.SQLiteDev" data-source-line="37" id="ent0023"><path d="M374.43,770.13 C374.43,760.13 441.0038,760.13 441.0038,760.13 C441.0038,760.13 507.5776,760.13 507.5776,770.13 L507.5776,817.2658 C507.5776,827.2658 441.0038,827.2658 441.0038,827.2658 C441.0038,827.2658 374.43,827.2658 374.43,817.2658 L374.43,770.13" fill="#FFFFFF" style="stroke:#000000;stroke-width:1;"/><path d="M374.43,770.13 C374.43,780.13 441.0038,780.13 441.0038,780.13 C441.0038,780.13 507.5776,780.13 507.5776,770.13" fill="none" style="stroke:#000000;stroke-width:1;"/><text fill="#000000" font-family="Verdana" font-size="14" lengthAdjust="spacing" textLength="71.3857" x="384.43" y="799.0959">SQLite Dev</text><text fill="#000000" font-family="Verdana" font-size="14" lengthAdjust="spacing" textLength="113.1476" x="384.43" y="818.1639">(data-dev.sqlite3)</text></g><!--entity FrontendContainer--><g class="entity" data-qualified-name="VPS.Docker Compose .production..FrontendContainer" data-source-line="26" id="ent0016"><rect fill="#FFFFFF" height="49.0679" rx="2.5" ry="2.5" style="stroke:#000000;stroke-width:1;" width="151.3416" x="616.33" y="491.96"/><rect fill="#FFFFFF" height="10" style="stroke:#000000;stroke-width:1;" width="15" x="747.6716" y="496.96"/><rect fill="#FFFFFF" height="2" style="stroke:#000000;stroke-width:1;" width="4" x="745.6716" y="498.96"/><rect fill="#FFFFFF" height="2" style="stroke:#000000;stroke-width:1;" width="4" x="745.6716" y="502.96"/><text fill="#000000" font-family="Verdana" font-size="14" lengthAdjust="spacing" textLength="111.3416" x="631.33" y="526.9259">Frontend (Nginx)</text></g><!--entity BackendContainer--><g class="entity" data-qualified-name="VPS.Docker Compose .production..BackendContainer" data-source-line="27" id="ent0017"><rect fill="#FFFFFF" height="49.0679" rx="2.5" ry="2.5" style="stroke:#000000;stroke-width:1;" width="209.0354" x="765.48" y="629.57"/><rect fill="#FFFFFF" height="10" style="stroke:#000000;stroke-width:1;" width="15" x="954.5154" y="634.57"/><rect fill="#FFFFFF" height="2" style="stroke:#000000;stroke-width:1;" width="4" x="952.5154" y="636.57"/><rect fill="#FFFFFF" height="2" style="stroke:#000000;stroke-width:1;" width="4" x="952.5154" y="640.57"/><text fill="#000000" font-family="Verdana" font-size="14" lengthAdjust="spacing" textLength="169.0354" x="780.48" y="664.5359">Backend (FastAPI/Python)</text></g><!--entity TurnContainer--><g class="entity" data-qualified-name="VPS.Docker Compose .production..TurnContainer" data-source-line="28" id="ent0018"><rect fill="#FFFFFF" height="68.1358" rx="2.5" ry="2.5" style="stroke:#000000;stroke-width:1;" width="172.2575" x="802.87" y="482.43"/><rect fill="#FFFFFF" height="10" style="stroke:#000000;stroke-width:1;" width="15" x="955.1275" y="487.43"/><rect fill="#FFFFFF" height="2" style="stroke:#000000;stroke-width:1;" width="4" x="953.1275" y="489.43"/><rect fill="#FFFFFF" height="2" style="stroke:#000000;stroke-width:1;" width="4" x="953.1275" y="493.43"/><text fill="#000000" font-family="Verdana" font-size="14" lengthAdjust="spacing" textLength="132.2575" x="817.87" y="517.3959">Coturn TURN Server</text><text fill="#000000" font-family="Verdana" font-size="14" lengthAdjust="spacing" textLength="90.8876" x="817.87" y="536.4639">:3478 tcp/udp</text></g><!--entity FrontendDev--><g class="entity" data-qualified-name="VPS.Docker Compose dev.n.shared vialive network..FrontendDev" data-source-line="32" id="ent0020"><rect fill="#FFFFFF" height="49.0679" rx="2.5" ry="2.5" style="stroke:#000000;stroke-width:1;" width="179.4675" x="366.27" y="491.96"/><rect fill="#FFFFFF" height="10" style="stroke:#000000;stroke-width:1;" width="15" x="525.7375" y="496.96"/><rect fill="#FFFFFF" height="2" style="stroke:#000000;stroke-width:1;" width="4" x="523.7375" y="498.96"/><rect fill="#FFFFFF" height="2" style="stroke:#000000;stroke-width:1;" width="4" x="523.7375" y="502.96"/><text fill="#000000" font-family="Verdana" font-size="14" lengthAdjust="spacing" textLength="139.4675" x="381.27" y="526.9259">Frontend-dev (Nginx)</text></g><!--entity BackendDev--><g class="entity" data-qualified-name="VPS.Docker Compose dev.n.shared vialive network..BackendDev" data-source-line="33" id="ent0021"><rect fill="#FFFFFF" height="49.0679" rx="2.5" ry="2.5" style="stroke:#000000;stroke-width:1;" width="237.1612" x="322.42" y="629.57"/><rect fill="#FFFFFF" height="10" style="stroke:#000000;stroke-width:1;" width="15" x="539.5812" y="634.57"/><rect fill="#FFFFFF" height="2" style="stroke:#000000;stroke-width:1;" width="4" x="537.5812" y="636.57"/><rect fill="#FFFFFF" height="2" style="stroke:#000000;stroke-width:1;" width="4" x="537.5812" y="640.57"/><text fill="#000000" font-family="Verdana" font-size="14" lengthAdjust="spacing" textLength="197.1612" x="337.42" y="664.5359">Backend-dev (FastAPI/Python)</text></g><!--entity Gemini--><g class="entity" data-qualified-name="Gemini" data-source-line="40" id="ent0024"><path d="M1373.1511,767.8769 C1375.328,762.2464 1380.5785,762.6403 1383.6152,766.974 C1386.9093,761.6269 1391.0015,762.6971 1394.2802,766.991 C1397.2055,761.2825 1402.1079,760.808 1405.6495,766.3693 C1409.146,760.1231 1414.4552,759.5333 1419.0521,765.1233 C1422.2976,760.8267 1427.2637,761.9603 1429.3399,766.4867 C1433.2392,761.4006 1437.6266,760.324 1441.5513,766.4592 C1445.4779,761.3275 1450.3235,761.6867 1452.9827,767.753 C1456.9102,763.0828 1461.2587,764.6434 1463.6825,769.4507 C1470.4995,771.4724 1472.1716,776.6835 1467.77,782.2797 C1474.284,783.2787 1476.6607,789.3846 1472.9183,794.6515 C1478.3121,800.6914 1476.9762,805.4311 1469.0746,807.4906 C1473.7761,813.594 1472.2274,818.5361 1464.7598,820.6491 C1460.7799,825.9162 1456.9445,826.9361 1452.9334,820.6811 C1449.3815,825.889 1445.2109,826.4269 1440.9042,821.5846 C1439.3219,827.0042 1434.0983,828.6385 1430.1939,824.0762 C1426.4685,830.3819 1422.0701,830.7095 1418.0493,824.3597 C1413.5108,830.1387 1408.8291,828.866 1406.2118,822.4888 C1402.6345,827.8878 1398.5081,828.4528 1394.6606,822.7705 C1389.9331,827.2457 1385.5271,826.7854 1382.6791,820.6486 C1379.4634,826.0797 1374.6675,826.0063 1371.4157,820.6864 C1366.2229,816.869 1365.7515,811.9508 1371.2771,808.0161 C1365.4532,804.7671 1363.7606,800.66 1369.5073,795.7425 C1363.5261,791.4915 1363.2149,786.1263 1370.1932,782.549 C1365.0674,777.082 1365.1897,770.7055 1373.1511,767.8769" fill="#FFFFFF" style="stroke:#000000;stroke-width:1;"/><text fill="#000000" font-family="Verdana" font-size="14" lengthAdjust="spacing" textLength="72.8557" x="1378.2" y="789.5959">Gemini API</text><text fill="#000000" font-family="Verdana" font-size="14" lengthAdjust="spacing" textLength="77.6017" x="1378.2" y="808.6639">(primary AI)</text></g><!--entity OpenAI--><g class="entity" data-qualified-name="OpenAI" data-source-line="41" id="ent0025"><path d="M1514.4266,768.2165 C1518.1278,762.7676 1522.8337,762.2262 1527.1522,767.4826 C1530.7585,761.6687 1535.0329,761.0178 1538.7834,767.3445 C1542.2238,761.3786 1546.6683,759.0975 1551.8225,765.5442 C1555.1595,759.2838 1558.7947,758.4861 1563.4979,764.2137 C1567.2028,758.5479 1571.294,758.987 1575.0945,764.1109 C1579.6069,758.9813 1583.4843,758.0381 1587.7992,764.3306 C1590.2847,757.8302 1595.3809,758.2215 1599.5533,762.4891 C1603.5636,756.999 1606.9197,757.7076 1610.1733,763.2195 C1614.8635,756.9666 1619.298,757.3962 1622.5353,764.5583 C1626.911,758.6848 1632.0249,758.7884 1634.9273,765.958 C1638.163,761.0791 1643.3675,761.3494 1646.1885,766.427 C1650.4926,760.0378 1656.9747,761.5621 1659.8354,767.9666 C1663.1374,761.0681 1667.6572,760.921 1672.1067,766.8706 C1676.2931,762.1103 1679.8867,761.8507 1683.1087,767.8562 C1690.183,771.2052 1690.4295,775.931 1685.2867,781.2645 C1692.1321,783.9544 1694.7388,788.7845 1689.0855,794.945 C1694.896,800.0821 1693.0141,806.1953 1685.7284,807.9523 C1690.5143,813.0525 1689.7657,817.6015 1683.5929,820.8932 C1679.8131,827.2028 1674.414,826.4612 1670.846,820.6701 C1667.3015,826.8767 1661.6347,827.062 1658.0238,820.7381 C1655.4023,826.275 1652.15,826.4394 1648.1056,822.1784 C1643.9772,827.7592 1638.955,829.6148 1634.7011,822.309 C1630.9997,827.6662 1626.2358,827.7404 1623.0229,821.8038 C1620.7713,827.0276 1615.6952,828.8569 1612.0207,823.2491 C1606.8089,829.7102 1601.9567,828.5096 1598.0414,821.8661 C1595.7623,826.7308 1591.0241,826.9272 1587.8102,822.9475 C1583.4264,827.6714 1578.4349,827.5697 1575.2072,821.5865 C1571.0124,826.2978 1567.5278,825.6748 1564.1219,820.685 C1561.7203,828.0805 1555.3237,828.7298 1550.8521,822.7367 C1546.5263,827.5964 1542.4796,828.5563 1538.9754,821.89 C1535.5941,827.51 1531.8486,827.6435 1528.1409,822.2101 C1522.2853,828.36 1518.3745,826.9917 1514.784,819.9216 C1507.7151,817.9887 1508.0144,812.9659 1512.1117,808.4351 C1504.7635,804.7244 1503.7633,800.4529 1509.6607,794.4249 C1504.36,788.6089 1505.1258,783.6328 1513.2535,781.5699 C1507.4611,777.4249 1507.9517,771.2838 1514.4266,768.2165" fill="#FFFFFF" style="stroke:#000000;stroke-width:1;"/><text fill="#000000" font-family="Verdana" font-size="14" lengthAdjust="spacing" textLength="153.6214" x="1521.19" y="789.5959">OpenAI-compatible API</text><text fill="#000000" font-family="Verdana" font-size="14" lengthAdjust="spacing" textLength="116.9276" x="1521.19" y="808.6639">(optional fallback)</text></g><!--entity GoogleOAuth--><g class="entity" data-qualified-name="GoogleOAuth" data-source-line="42" id="ent0026"><path d="M1056.5303,777.9844 C1059.7221,771.7579 1065.899,771.7737 1069.4606,777.5873 C1073.2813,771.4341 1079.3507,771.658 1082.4004,778.3633 C1086.4089,770.6955 1091.1123,770.871 1096.2053,777.3014 C1100.7914,769.9305 1106.631,770.0854 1110.9599,777.5571 C1114.5592,771.9054 1119.9285,772.7802 1123.0175,778.1171 C1127.2913,770.7119 1133.2317,770.9574 1137.9213,777.6783 C1141.0857,771.563 1145.3256,771.3184 1149.3222,776.8648 C1155.0126,769.9243 1159.8545,771.718 1164.1447,778.3896 C1175.1866,777.2323 1179.9119,785.1702 1173.8093,794.377 C1178.1159,803.7002 1174.8734,809.7002 1164.6771,811.1066 C1160.0188,817.4069 1154.0277,817.3107 1149.5477,810.8945 C1146.6652,816.7419 1140.4801,817.5048 1136.3328,812.4239 C1132.2664,819.3373 1127.4708,818.483 1123.1262,812.7136 C1118.965,818.3873 1113.4588,819.456 1109.3353,812.6718 C1104.9421,818.4132 1100.593,818.1568 1096.6118,812.2228 C1093.8995,819.0601 1087.6533,819.1592 1084.0064,813.1391 C1079.6634,819.2062 1072.4446,819.345 1069.0548,812.0708 C1064.8253,818.5954 1058.9275,817.2252 1056.0974,810.683 C1048.3123,807.0316 1049.2935,800.31 1055.165,795.8028 C1047.8203,789.6352 1046.703,782.8363 1056.5303,777.9844" fill="#FFFFFF" style="stroke:#000000;stroke-width:1;"/><text fill="#000000" font-family="Verdana" font-size="14" lengthAdjust="spacing" textLength="93.1276" x="1062.44" y="799.1359">Google OAuth</text></g><!--entity GitHubOAuth--><g class="entity" data-qualified-name="GitHubOAuth" data-source-line="43" id="ent0027"><path d="M1213.8193,777.3484 C1218.0969,769.6441 1224.7243,770.2532 1228.4991,777.8313 C1231.5554,772.5171 1237.5242,772.6478 1240.6225,777.7826 C1244.3525,770.6053 1250.2328,770.8605 1253.9949,777.7521 C1258.292,771.192 1263.3256,770.4726 1268.9244,776.1662 C1273.6723,770.4434 1278.2304,771.1339 1282.3579,776.892 C1286.053,770.2734 1290.9587,771.8573 1294.5138,777.0364 C1299.4605,771.6127 1304.0909,772.473 1307.9506,778.3311 C1312.7781,771.4104 1316.9619,772.5178 1321.5435,778.5883 C1330.8854,780.7914 1334.4038,785.5305 1328.1055,794.2758 C1334.5951,802.3712 1330.539,809.6295 1320.905,810.6228 C1318.0655,817.7772 1313.4378,819.9815 1307.0569,814.5056 C1304.1584,820.4445 1298.636,821.685 1293.9943,816.5647 C1290.4627,822.0312 1286.4121,823.5754 1281.8279,817.6931 C1278.9161,823.8514 1272.4944,825.364 1268.1788,819.255 C1263.0896,824.8213 1258.3314,825.3369 1254.8159,817.6663 C1249.8296,823.6213 1244.716,822.2089 1241.3244,815.9104 C1236.8834,821.8574 1231.6678,819.6844 1228.8506,814.1467 C1222.9208,818.5139 1218.2479,819.0374 1215.3065,810.908 C1207.0427,806.6176 1207.0164,801.5658 1212.5077,794.8745 C1203.3556,789.7231 1205.3433,781.1806 1213.8193,777.3484" fill="#FFFFFF" style="stroke:#000000;stroke-width:1;"/><text fill="#000000" font-family="Verdana" font-size="14" lengthAdjust="spacing" textLength="92.3716" x="1220.81" y="799.1359">GitHub OAuth</text></g><!--link Browser to Caddy--><g class="link" data-entity-1="ent0003" data-entity-2="ent0011" data-link-type="dependency" data-source-line="46" id="lnk28"><path d="M816.73,119.37 C801.35,131.86 781.69,146.96 763,158.83 C711.15,191.76 698.89,204.4 640,221.83 C606.58,231.72 593.68,215.32 562,229.83 C529.56,244.69 504.564,268.9483 485.184,291.8683" fill="none" id="Browser-to-Caddy" style="stroke:#000000;stroke-width:1;"/><polygon fill="#000000" points="481.31,296.45,490.1755,292.1602,484.5384,292.6319,484.0666,286.9948,481.31,296.45" style="stroke:#000000;stroke-width:1;"/><text fill="#000000" font-family="Verdana" font-size="13" lengthAdjust="spacing" textLength="39.091" x="749.55" y="199.727">HTTPS</text></g><!--link DesktopApp to Caddy--><g class="link" data-entity-1="ent0004" data-entity-2="ent0011" data-link-type="dependency" data-source-line="47" id="lnk29"><path d="M634.82,119.19 C599.15,161.22 528.7622,244.1553 488.0622,292.1153" fill="none" id="DesktopApp-to-Caddy" style="stroke:#000000;stroke-width:1;"/><polygon fill="#000000" points="484.18,296.69,493.0532,292.416,487.4152,292.8777,486.9535,287.2397,484.18,296.69" style="stroke:#000000;stroke-width:1;"/><text fill="#000000" font-family="Verdana" font-size="13" lengthAdjust="spacing" textLength="39.091" x="591.63" y="199.727">HTTPS</text></g><!--link Caddy to FrontendContainer--><g class="link" data-entity-1="ent0011" data-entity-2="ent0016" data-link-type="dependency" data-source-line="50" id="lnk30"><path d="M501.3,365.32 C523.89,382.13 551.54,402.93 576,421.96 C606.01,445.32 635.1655,468.8915 658.4955,487.9715" fill="none" id="Caddy-to-FrontendContainer" style="stroke:#000000;stroke-width:1;"/><polygon fill="#000000" points="663.14,491.77,658.7055,482.976,659.2695,488.6046,653.6409,489.1687,663.14,491.77" style="stroke:#000000;stroke-width:1;"/><text fill="#000000" font-family="Verdana" font-size="13" lengthAdjust="spacing" textLength="29.224" x="564.13" y="409.857">prod</text></g><!--link Caddy to FrontendDev--><g class="link" data-entity-1="ent0011" data-entity-2="ent0020" data-link-type="dependency" data-source-line="51" id="lnk31"><path d="M456,365.15 C456,401.62 456,453.27 456,485.56" fill="none" id="Caddy-to-FrontendDev" style="stroke:#000000;stroke-width:1;"/><polygon fill="#000000" points="456,491.56,460,482.56,456,486.56,452,482.56,456,491.56" style="stroke:#000000;stroke-width:1;"/><text fill="#000000" font-family="Verdana" font-size="13" lengthAdjust="spacing" textLength="21.931" x="457" y="409.857">dev</text></g><!--link FrontendContainer to BackendContainer--><g class="link" data-entity-1="ent0016" data-entity-2="ent0017" data-link-type="dependency" data-source-line="54" id="lnk32"><path d="M723.41,541.43 C755.85,566.14 801.3975,600.8336 833.8275,625.5436" fill="none" id="FrontendContainer-to-BackendContainer" style="stroke:#000000;stroke-width:1;"/><polygon fill="#000000" points="838.6,629.18,833.8655,620.5438,834.6229,626.1497,829.017,626.9071,838.6,629.18" style="stroke:#000000;stroke-width:1;"/><text fill="#000000" font-family="Verdana" font-size="13" lengthAdjust="spacing" textLength="47.463" x="797.94" y="595.467">internal</text></g><!--link FrontendDev to BackendDev--><g class="link" data-entity-1="ent0020" data-entity-2="ent0021" data-link-type="dependency" data-source-line="55" id="lnk33"><path d="M453.35,541.43 C450.61,566.22 447.0091,598.7463 444.2791,623.4463" fill="none" id="FrontendDev-to-BackendDev" style="stroke:#000000;stroke-width:1;"/><polygon fill="#000000" points="443.62,629.41,448.5845,620.9039,444.1693,624.4403,440.6329,620.025,443.62,629.41" style="stroke:#000000;stroke-width:1;"/><text fill="#000000" font-family="Verdana" font-size="13" lengthAdjust="spacing" textLength="47.463" x="449.95" y="595.467">internal</text></g><!--link Browser to TurnContainer--><g class="link" data-entity-1="ent0003" data-entity-2="ent0018" data-link-type="dependency" data-source-line="58" id="lnk34"><path d="M848.41,119.18 C852.2,146.02 858.4,191.02 863,229.83 C871.68,303.1 873.47,321.47 880,394.96 C882.61,424.33 884.642,451.7846 886.332,475.9846" fill="none" id="Browser-to-TurnContainer" style="stroke:#000000;stroke-width:1;stroke-dasharray:7,7;"/><polygon fill="#000000" points="886.75,481.97,890.1133,472.7132,886.4017,476.9821,882.1327,473.2705,886.75,481.97" style="stroke:#000000;stroke-width:1;"/><text fill="#000000" font-family="Verdana" font-size="13" lengthAdjust="spacing" textLength="73.2811" x="888.2405" y="318.297">STUN/TURN</text><text fill="#000000" font-family="Verdana" font-size="13" lengthAdjust="spacing" textLength="92.0271" x="878.8675" y="336.003">(UDP/TCP 3478</text><text fill="#000000" font-family="Verdana" font-size="13" lengthAdjust="spacing" textLength="93.2621" x="878.25" y="353.709">+ 49160-49200)</text></g><!--link BackendContainer to SQLite--><g class="link" data-entity-1="ent0017" data-entity-2="ent0022" data-link-type="dependency" data-source-line="61" id="lnk35"><path d="M870,679.07 C870,701.4 870,728.89 870,753.73" fill="none" id="BackendContainer-to-SQLite" style="stroke:#000000;stroke-width:1;stroke-dasharray:7,7;"/><polygon fill="#000000" points="870,759.73,874,750.73,870,754.73,866,750.73,870,759.73" style="stroke:#000000;stroke-width:1;"/><text fill="#000000" font-family="Verdana" font-size="13" lengthAdjust="spacing" textLength="68.3801" x="871" y="725.527">Read/Write</text></g><!--link BackendDev to SQLiteDev--><g class="link" data-entity-1="ent0021" data-entity-2="ent0023" data-link-type="dependency" data-source-line="62" id="lnk36"><path d="M441,679.07 C441,701.4 441,728.89 441,753.73" fill="none" id="BackendDev-to-SQLiteDev" style="stroke:#000000;stroke-width:1;stroke-dasharray:7,7;"/><polygon fill="#000000" points="441,759.73,445,750.73,441,754.73,437,750.73,441,759.73" style="stroke:#000000;stroke-width:1;"/><text fill="#000000" font-family="Verdana" font-size="13" lengthAdjust="spacing" textLength="68.3801" x="442" y="725.527">Read/Write</text></g><!--link BackendContainer to Gemini--><g class="link" data-entity-1="ent0017" data-entity-2="ent0024" data-link-type="dependency" data-source-line="65" id="lnk37"><path d="M974.71,669.06 C1038.79,678.58 1122.19,692.7 1195,710.63 C1263.51,727.51 1280.34,733.8 1346,759.63 C1351.57,761.82 1351.8237,761.8336 1357.5337,764.3336" fill="none" id="BackendContainer-to-Gemini" style="stroke:#000000;stroke-width:1;stroke-dasharray:7,7;"/><polygon fill="#000000" points="1363.03,766.74,1356.3899,759.4662,1358.4498,764.7346,1353.1813,766.7945,1363.03,766.74" style="stroke:#000000;stroke-width:1;"/><text fill="#000000" font-family="Verdana" font-size="13" lengthAdjust="spacing" textLength="133.1461" x="1264.98" y="725.527">REST API (AI quiz gen)</text></g><!--link BackendContainer to OpenAI--><g class="link" data-entity-1="ent0017" data-entity-2="ent0025" data-link-type="dependency" data-source-line="66" id="lnk38"><path d="M974.85,656.61 C1084.31,660.35 1260.16,672.45 1407,710.63 C1450.66,721.99 1491.8076,739.2304 1528.0276,756.5604" fill="none" id="BackendContainer-to-OpenAI" style="stroke:#000000;stroke-width:1;stroke-dasharray:7,7;"/><polygon fill="#000000" points="1533.44,759.15,1527.0479,751.6573,1528.9297,756.992,1523.595,758.8738,1533.44,759.15" style="stroke:#000000;stroke-width:1;"/><text fill="#000000" font-family="Verdana" font-size="13" lengthAdjust="spacing" textLength="111.7611" x="1462.2" y="725.527">REST API (fallback)</text></g><!--link BackendContainer to GoogleOAuth--><g class="link" data-entity-1="ent0017" data-entity-2="ent0026" data-link-type="dependency" data-source-line="67" id="lnk39"><path d="M947.62,679.09 C970.12,687.55 994.21,698.12 1015,710.63 C1041.91,726.83 1064.2491,746.7756 1082.2391,764.6956" fill="none" id="BackendContainer-to-GoogleOAuth" style="stroke:#000000;stroke-width:1;stroke-dasharray:7,7;"/><polygon fill="#000000" points="1086.49,768.93,1082.9366,759.7445,1082.9476,765.4014,1077.2907,765.4124,1086.49,768.93" style="stroke:#000000;stroke-width:1;"/><text fill="#000000" font-family="Verdana" font-size="13" lengthAdjust="spacing" textLength="46.6571" x="1041.29" y="725.527">OAuth2</text></g><!--link BackendContainer to GitHubOAuth--><g class="link" data-entity-1="ent0017" data-entity-2="ent0027" data-link-type="dependency" data-source-line="68" id="lnk40"><path d="M974.84,676.11 C1013.45,685.09 1057.21,696.73 1096,710.63 C1140.79,726.69 1184.1951,747.9667 1218.1251,765.8967" fill="none" id="BackendContainer-to-GitHubOAuth" style="stroke:#000000;stroke-width:1;stroke-dasharray:7,7;"/><polygon fill="#000000" points="1223.43,768.7,1217.3416,760.9585,1219.0093,766.3639,1213.6038,768.0316,1223.43,768.7" style="stroke:#000000;stroke-width:1;"/><text fill="#000000" font-family="Verdana" font-size="13" lengthAdjust="spacing" textLength="46.6571" x="1140.44" y="725.527">OAuth2</text></g><!--link CICD to VPS--><g class="link" data-entity-1="ent0006" data-entity-2="ent0010" data-link-type="dependency" data-source-line="71" id="lnk41"><path d="M141.9,119.19 C160.295,148.53 192.5825,200.0325 220.6313,244.7737 C234.6556,267.1444 247.6203,287.8247 257.2589,303.1992 C259.6686,307.0429 261.8703,310.5549 263.8288,313.6788 C264.3184,314.4598 264.7928,315.2165 265.2515,315.9481 C265.4808,316.3139 262.5191,311.5898 262.7405,311.9429" fill="none" id="CICD-to-VPS" style="stroke:#000000;stroke-width:1;"/><polygon fill="#000000" points="265.9276,317.0265,264.536,307.2764,263.2717,312.7902,257.7579,311.5258,265.9276,317.0265" style="stroke:#000000;stroke-width:1;"/><text fill="#000000" font-family="Verdana" font-size="13" lengthAdjust="spacing" textLength="68.4581" x="249.3235" y="181.727">SSH deploy</text><text fill="#000000" font-family="Verdana" font-size="13" lengthAdjust="spacing" textLength="155.2852" x="205.91" y="199.433">(scripts/deploy-update.sh</text><text fill="#000000" font-family="Verdana" font-size="13" lengthAdjust="spacing" textLength="97.1491" x="234.978" y="217.139">/ deploy-dev.sh)</text></g><?plantuml-src VLN1Kjim4BtxAxPScamdDWMcBHoO2GujcM4WnQRCjFIWs9j4WoEfiXn8Exts0_g9_PAk9Di9972ofNshVRjwktfbPZX7K0NZ8WY4p15sueAZC93m77VWLm3mxGR7SABbVOdwEx2o-RUcqm8pewM00PPtHYheA-KmzPgMmU_cv4_Sd5NZ-b2_W7vck1GbnCCe7ZZFU1WF222aGT1yEZCW9yqcmDiG39QcDsRP7OeSEcffrrrdtAkD4s9ad7N1LzRz479KXLp2WZD8aZFep2bl-FVdBp2b8eywQ52z71Shf5tKG6jmO1l1qbnb-6MKrEd5BC-NS8KBr2N2ICk7vQteV4Kja-GSqlEawvEriCriwrsmyGk-mB3WOusLu64cvux7FOwFFkmw3D49Ny9PlXxR4dOHBU61f39gYELSIUBPKLhcbRkIha-4KldOLlDYoiM39zvinlIX8Zer4FQakPQFh3JzqJ0QBSsC3lEwySOdBh4qbHQGNbzTG8AQ2dOhZlOFtdy0awceohsUKiAiE_v-DWVAbYfTpfZ6lAaV23JtKjzj9kLkULjY0rmyIia3NqZBEpXUEJDip8ZBJlBvd1H8VEnMMFueQBLFBCZDcxQWgNSMjOSDkitBng98MI6hdFeAvrnm85xafZIVCxs4_j0xU6C3lLGe-iCUgKCnmyS5rbvIsJjd1KnOKTZUyiuUtiQHSaeUb_tApFpPRiEjMunlwpMCs_2Ou3NKqyLeDfdmBAX72VHwnrxrS0HdQJfAWjK0sMAq1xaDBIl3nJJmAmlS42OvMLLlWL0LoKWbjkUrAYVm0yVI5WOogaO9Ha8xRkn0y6e9DYFPmv-Ad29mWcagRh0UU0thURGe8aCJzogDOHYVHhOlsZA5uV7ZJY2_9Bs-S2Ywnkl1A4hZ4TZskHLluE3mxRlTti7XtkvkrvxRjAUYgSHBef9Xi47O1gcLU4GJZENHZRPANMExWdZkQoYASlhWCm6YlE0PbjjZrB8bxzCaTUNkz8Vme-8_OOgYkzt9A_AHKolPPyAiH4fkxhlt378brHNIIis-JVMhC2Vr1lOrSXT8yzxU03qGtce7JwQvCcLKFoALeZx6i9pTYcZjOQ6Dxdy0?></g></svg>