<?xml version="1.0" encoding="us-ascii" standalone="no"?><svg xmlns="http://www.w3.org/2000/svg" xmlns:xlink="http://www.w3.org/1999/xlink" contentStyleType="text/css" height="534px" preserveAspectRatio="none" style="width:907px;height:534px;background:#FFFFFF;" version="1.1" viewBox="0 0 907 534" width="907px" zoomAndPan="magnify"><defs/><g><rect fill="#FFFFFF" height="51.412" style="stroke:#000000;stroke-width:1.0;" width="564.5" x="337" y="381.716"/><line style="stroke:#000000;stroke-width:1.0;" x1="39" x2="39" y1="85.0679" y2="450.1281"/><line style="stroke:#000000;stroke-width:1.0;" x1="392" x2="392" y1="85.0679" y2="450.1281"/><line style="stroke:#000000;stroke-width:1.0;" x1="861.5" x2="861.5" y1="85.0679" y2="450.1281"/><text fill="#000000" font-family="Verdana" font-size="14" lengthAdjust="spacing" textLength="53" x="10" y="80.9659">Student</text><ellipse cx="39.5" cy="14" fill="#FFFFFF" rx="8" ry="8" style="stroke:#000000;stroke-width:1.0;"/><path d="M39.5,22 L39.5,49 M26.5,30 L52.5,30 M39.5,49 L26.5,64 M39.5,49 L52.5,64 " fill="none" style="stroke:#000000;stroke-width:1.0;"/><text fill="#000000" font-family="Verdana" font-size="14" lengthAdjust="spacing" textLength="53" x="10" y="464.094">Student</text><ellipse cx="39.5" cy="477.196" fill="#FFFFFF" rx="8" ry="8" style="stroke:#000000;stroke-width:1.0;"/><path d="M39.5,485.196 L39.5,512.196 M26.5,493.196 L52.5,493.196 M39.5,512.196 L26.5,527.196 M39.5,512.196 L52.5,527.196 " fill="none" style="stroke:#000000;stroke-width:1.0;"/><rect fill="#FFFFFF" height="33.0679" rx="2.5" ry="2.5" style="stroke:#000000;stroke-width:1.0;" width="71" x="357" y="51"/><text fill="#000000" font-family="Verdana" font-size="14" lengthAdjust="spacing" textLength="57" x="364" y="72.9659">Backend</text><rect fill="#FFFFFF" height="33.0679" rx="2.5" ry="2.5" style="stroke:#000000;stroke-width:1.0;" width="71" x="357" y="449.1281"/><text fill="#000000" font-family="Verdana" font-size="14" lengthAdjust="spacing" textLength="57" x="364" y="471.094">Backend</text><text fill="#000000" font-family="Verdana" font-size="14" lengthAdjust="spacing" textLength="54" x="831.5" y="80.9659">Teacher</text><ellipse cx="861.5" cy="14" fill="#FFFFFF" rx="8" ry="8" style="stroke:#000000;stroke-width:1.0;"/><path d="M861.5,22 L861.5,49 M848.5,30 L874.5,30 M861.5,49 L848.5,64 M861.5,49 L874.5,64 " fill="none" style="stroke:#000000;stroke-width:1.0;"/><text fill="#000000" font-family="Verdana" font-size="14" lengthAdjust="spacing" textLength="54" x="831.5" y="464.094">Teacher</text><ellipse cx="861.5" cy="477.196" fill="#FFFFFF" rx="8" ry="8" style="stroke:#000000;stroke-width:1.0;"/><path d="M861.5,485.196 L861.5,512.196 M848.5,493.196 L874.5,493.196 M861.5,512.196 L848.5,527.196 M861.5,512.196 L874.5,527.196 " fill="none" style="stroke:#000000;stroke-width:1.0;"/><polygon fill="#000000" points="380.5,114.7739,390.5,118.7739,380.5,122.7739,384.5,118.7739" style="stroke:#000000;stroke-width:1.0;"/><line style="stroke:#000000;stroke-width:1.0;" x1="39.5" x2="386.5" y1="118.7739" y2="118.7739"/><text fill="#000000" font-family="Verdana" font-size="13" lengthAdjust="spacing" textLength="237" x="46.5" y="112.9649">WS Send {type: "confusion", payload: {}}</text><line style="stroke:#000000;stroke-width:1.0;" x1="392.5" x2="434.5" y1="150.4799" y2="150.4799"/><line style="stroke:#000000;stroke-width:1.0;" x1="434.5" x2="434.5" y1="150.4799" y2="163.4799"/><line style="stroke:#000000;stroke-width:1.0;" x1="393.5" x2="434.5" y1="163.4799" y2="163.4799"/><polygon fill="#000000" points="403.5,159.4799,393.5,163.4799,403.5,167.4799,399.5,163.4799" style="stroke:#000000;stroke-width:1.0;"/><text fill="#000000" font-family="Verdana" font-size="13" lengthAdjust="spacing" textLength="182" x="399.5" y="144.6709">Record Metric &amp; Set Cooldown</text><polygon fill="#000000" points="849.5,191.186,859.5,195.186,849.5,199.186,853.5,195.186" style="stroke:#000000;stroke-width:1.0;"/><line style="stroke:#000000;stroke-width:1.0;" x1="392.5" x2="855.5" y1="195.186" y2="195.186"/><text fill="#000000" font-family="Verdana" font-size="13" lengthAdjust="spacing" textLength="371" x="399.5" y="189.377">WS Emit {type: "notification", payload: "A student is confused"}</text><polygon fill="#000000" points="50.5,222.892,40.5,226.892,50.5,230.892,46.5,226.892" style="stroke:#000000;stroke-width:1.0;"/><line style="stroke:#000000;stroke-width:1.0;" x1="44.5" x2="391.5" y1="226.892" y2="226.892"/><text fill="#000000" font-family="Verdana" font-size="13" lengthAdjust="spacing" textLength="329" x="56.5" y="221.083">WS Emit {type: "metrics", payload: {confusionLevel: +1}}</text><polygon fill="#000000" points="849.5,254.598,859.5,258.598,849.5,262.598,853.5,258.598" style="stroke:#000000;stroke-width:1.0;"/><line style="stroke:#000000;stroke-width:1.0;" x1="392.5" x2="855.5" y1="258.598" y2="258.598"/><text fill="#000000" font-family="Verdana" font-size="13" lengthAdjust="spacing" textLength="149" x="399.5" y="252.789">WS Emit {type: "metrics"}</text><polygon fill="#000000" points="380.5,286.304,390.5,290.304,380.5,294.304,384.5,290.304" style="stroke:#000000;stroke-width:1.0;"/><line style="stroke:#000000;stroke-width:1.0;" x1="39.5" x2="386.5" y1="290.304" y2="290.304"/><text fill="#000000" font-family="Verdana" font-size="13" lengthAdjust="spacing" textLength="245" x="46.5" y="284.495">WS Send {type: "vote_break", payload: {}}</text><line style="stroke:#000000;stroke-width:1.0;" x1="392.5" x2="434.5" y1="322.01" y2="322.01"/><line style="stroke:#000000;stroke-width:1.0;" x1="434.5" x2="434.5" y1="322.01" y2="335.01"/><line style="stroke:#000000;stroke-width:1.0;" x1="393.5" x2="434.5" y1="335.01" y2="335.01"/><polygon fill="#000000" points="403.5,331.01,393.5,335.01,403.5,339.01,399.5,335.01" style="stroke:#000000;stroke-width:1.0;"/><text fill="#000000" font-family="Verdana" font-size="13" lengthAdjust="spacing" textLength="145" x="399.5" y="316.201">Update Break Threshold</text><polygon fill="#000000" points="849.5,362.716,859.5,366.716,849.5,370.716,853.5,366.716" style="stroke:#000000;stroke-width:1.0;"/><line style="stroke:#000000;stroke-width:1.0;" x1="392.5" x2="855.5" y1="366.716" y2="366.716"/><text fill="#000000" font-family="Verdana" font-size="13" lengthAdjust="spacing" textLength="303" x="399.5" y="360.907">WS Emit {type: "metrics", payload: {breakVotes: N}}</text><path d="M337,381.716 L400,381.716 L400,391.4221 L390,401.4221 L337,401.4221 L337,381.716 " fill="#FFFFFF" style="stroke:#000000;stroke-width:1.0;"/><rect fill="none" height="51.412" style="stroke:#000000;stroke-width:1.0;" width="564.5" x="337" y="381.716"/><text fill="#000000" font-family="Verdana" font-size="13" font-weight="bold" lengthAdjust="spacing" textLength="18" x="352" y="396.6131">alt</text><text fill="#000000" font-family="Verdana" font-size="11" font-weight="bold" lengthAdjust="spacing" textLength="150" x="415" y="395.475">[Break Threshold Reached]</text><polygon fill="#000000" points="849.5,421.1281,859.5,425.1281,849.5,429.1281,853.5,425.1281" style="stroke:#000000;stroke-width:1.0;"/><line style="stroke:#000000;stroke-width:1.0;" x1="392.5" x2="855.5" y1="425.1281" y2="425.1281"/><text fill="#000000" font-family="Verdana" font-size="13" lengthAdjust="spacing" textLength="445" x="399.5" y="419.3191">WS Emit {type: "notification", payload: "Class break requested by majority"}</text><!--SRC=[bP4nJyCm48Lt_uf71XPWOCs0H2esO201HdIrhuffOWVxMXHL_UyuQQYWg4BrU7xtlRjtPr9po-WQiaufqk83IbaPTWAAA5L7GQos7QL2GNh9pWmVnQIjc7JDOIXLIfMuka6HuxL4EGWtqdUS8zFUBLRHUfTTegE-yMHoRBPRLKmDJwnzC7XW2LRZF7KBPjutnd-wdQWQgNUjbJtLUR4BgqaEmDajuhI2ZTXviyacj_8lg1rjuw_XzYFVyvgR71VNt-DMnm7Run6ilV3RF30jZsNmt1aIHZ5eKDM1Ovq2-DVp9staloIdcECneHKrSWXCMGydCmhfdHpjhA4OCVeWyCUAex31l4TBxpvOwLC6QMtr1G00]--></g></svg>