<?plantuml 1.2026.1?><svg xmlns="http://www.w3.org/2000/svg" xmlns:xlink="http://www.w3.org/1999/xlink" contentStyleType="text/css" data-diagram-type="DESCRIPTION" height="876px" preserveAspectRatio="none" style="width:1732px;height:876px;background:#FFFFFF;" version="1.1" viewBox="0 0 1732 876" width="1732px" zoomAndPan="magnify"><defs/><g><!--cluster Cloud Environment (Ubuntu VPS)--><g class="cluster" data-qualified-name="Cloud Environment .Ubuntu VPS." data-source-line="10" id="ent0007"><polygon fill="#FFFFFF" points="259.43,306.13,269.43,296.13,968.43,296.13,968.43,849.56,958.43,859.56,259.43,859.56,259.43,306.13" style="stroke:#000000;stroke-width:1;"/><line style="stroke:#000000;stroke-width:1;" x1="958.43" x2="968.43" y1="306.13" y2="296.13"/><line style="stroke:#000000;stroke-width:1;" x1="259.43" x2="958.43" y1="306.13" y2="306.13"/><line style="stroke:#000000;stroke-width:1;" x1="958.43" x2="958.43" y1="306.13" y2="859.56"/><text fill="#000000" font-family="Verdana" font-size="14" font-weight="bold" lengthAdjust="spacing" textLength="228.9971" x="495.4315" y="324.0959">Cloud Environment (Ubuntu VPS)</text></g><!--cluster Docker Network (Isolated)--><g class="cluster" data-qualified-name="Cloud Environment .Ubuntu VPS..Docker Network .Isolated." data-source-line="16" id="ent0011"><polygon fill="#FFFFFF" points="283.43,570.2,293.43,560.2,781.43,560.2,781.43,825.56,771.43,835.56,283.43,835.56,283.43,570.2" style="stroke:#000000;stroke-width:1;"/><line style="stroke:#000000;stroke-width:1;" x1="771.43" x2="781.43" y1="570.2" y2="560.2"/><line style="stroke:#000000;stroke-width:1;" x1="283.43" x2="771.43" y1="570.2" y2="570.2"/><line style="stroke:#000000;stroke-width:1;" x1="771.43" x2="771.43" y1="570.2" y2="835.56"/><text fill="#000000" font-family="Verdana" font-size="14" font-weight="bold" lengthAdjust="spacing" textLength="184.8413" x="436.0094" y="588.1659">Docker Network (Isolated)</text></g><!--entity PortWeb--><g class="entity" data-qualified-name="Cloud Environment .Ubuntu VPS..PortWeb" data-source-line="11" id="ent0008"><ellipse cx="472.43" cy="371.13" fill="#FFFFFF" rx="8" ry="8" style="stroke:#000000;stroke-width:1;"/><text fill="#000000" font-family="Verdana" font-size="14" lengthAdjust="spacing" textLength="118.2295" x="413.3152" y="403.0959">Port 80/443 (Web)</text></g><!--entity PortSSH--><g class="entity" data-qualified-name="Cloud Environment .Ubuntu VPS..PortSSH" data-source-line="12" id="ent0009"><ellipse cx="817.43" cy="371.13" fill="#FFFFFF" rx="8" ry="8" style="stroke:#000000;stroke-width:1;"/><text fill="#000000" font-family="Verdana" font-size="14" lengthAdjust="spacing" textLength="85.2177" x="774.8212" y="403.0959">Port 22 (SSH)</text></g><!--entity Firewall--><g class="entity" data-qualified-name="Cloud Environment .Ubuntu VPS..Firewall" data-source-line="14" id="ent0010"><rect fill="#FFFFFF" height="49.0679" rx="2.5" ry="2.5" style="stroke:#000000;stroke-width:1;" width="143.5156" x="659.67" y="464.13"/><rect fill="#FFFFFF" height="10" style="stroke:#000000;stroke-width:1;" width="15" x="783.1856" y="469.13"/><rect fill="#FFFFFF" height="2" style="stroke:#000000;stroke-width:1;" width="4" x="781.1856" y="471.13"/><rect fill="#FFFFFF" height="2" style="stroke:#000000;stroke-width:1;" width="4" x="781.1856" y="475.13"/><text fill="#000000" font-family="Verdana" font-size="14" lengthAdjust="spacing" textLength="103.5156" x="674.67" y="499.0959">UFW &amp; Fail2ban</text></g><!--entity SQLite--><g class="entity" data-qualified-name="Cloud Environment .Ubuntu VPS..SQLite" data-source-line="27" id="ent0019"><path d="M800.84,773.53 C800.84,763.53 876.4298,763.53 876.4298,763.53 C876.4298,763.53 952.0195,763.53 952.0195,773.53 L952.0195,801.5979 C952.0195,811.5979 876.4298,811.5979 876.4298,811.5979 C876.4298,811.5979 800.84,811.5979 800.84,801.5979 L800.84,773.53" fill="#FFFFFF" style="stroke:#000000;stroke-width:1;"/><path d="M800.84,773.53 C800.84,783.53 876.4298,783.53 876.4298,783.53 C876.4298,783.53 952.0195,783.53 952.0195,773.53" fill="none" style="stroke:#000000;stroke-width:1;"/><text fill="#000000" font-family="Verdana" font-size="14" lengthAdjust="spacing" textLength="131.1795" x="810.84" y="802.4959">SQLite (data.sqlite3)</text></g><!--entity Caddy--><g class="entity" data-qualified-name="Cloud Environment .Ubuntu VPS..Docker Network .Isolated..Caddy" data-source-line="17" id="ent0012"><rect fill="#FFFFFF" height="49.0679" rx="2.5" ry="2.5" style="stroke:#000000;stroke-width:1;" width="170.7035" x="402.08" y="603.2"/><rect fill="#FFFFFF" height="10" style="stroke:#000000;stroke-width:1;" width="15" x="552.7835" y="608.2"/><rect fill="#FFFFFF" height="2" style="stroke:#000000;stroke-width:1;" width="4" x="550.7835" y="610.2"/><rect fill="#FFFFFF" height="2" style="stroke:#000000;stroke-width:1;" width="4" x="550.7835" y="614.2"/><text fill="#000000" font-family="Verdana" font-size="14" lengthAdjust="spacing" textLength="130.7035" x="417.08" y="638.1659">Caddy (Proxy &amp; TLS)</text></g><!--entity Nginx--><g class="entity" data-qualified-name="Cloud Environment .Ubuntu VPS..Docker Network .Isolated..Nginx" data-source-line="18" id="ent0013"><rect fill="#FFFFFF" height="49.0679" rx="2.5" ry="2.5" style="stroke:#000000;stroke-width:1;" width="181.1475" x="299.86" y="763.03"/><rect fill="#FFFFFF" height="10" style="stroke:#000000;stroke-width:1;" width="15" x="461.0075" y="768.03"/><rect fill="#FFFFFF" height="2" style="stroke:#000000;stroke-width:1;" width="4" x="459.0075" y="770.03"/><rect fill="#FFFFFF" height="2" style="stroke:#000000;stroke-width:1;" width="4" x="459.0075" y="774.03"/><text fill="#000000" font-family="Verdana" font-size="14" lengthAdjust="spacing" textLength="141.1475" x="314.86" y="797.9959">Nginx (Frontend App)</text></g><!--entity FastAPI--><g class="entity" data-qualified-name="Cloud Environment .Ubuntu VPS..Docker Network .Isolated..FastAPI" data-source-line="20" id="ent0014"><rect fill="#FFFFFF" height="49.0679" rx="2.5" ry="2.5" style="stroke:#000000;stroke-width:1;" width="157.3896" x="607.74" y="603.2"/><rect fill="#FFFFFF" height="10" style="stroke:#000000;stroke-width:1;" width="15" x="745.1296" y="608.2"/><rect fill="#FFFFFF" height="2" style="stroke:#000000;stroke-width:1;" width="4" x="743.1296" y="610.2"/><rect fill="#FFFFFF" height="2" style="stroke:#000000;stroke-width:1;" width="4" x="743.1296" y="614.2"/><text fill="#000000" font-family="Verdana" font-size="14" lengthAdjust="spacing" textLength="117.3896" x="622.74" y="638.1659">FastAPI (Backend)</text></g><!--entity API--><g class="entity" data-qualified-name="Cloud Environment .Ubuntu VPS..Docker Network .Isolated..API" data-source-line="21" id="ent0015"><ellipse cx="558.43" cy="787.56" fill="#FFFFFF" rx="8" ry="8" style="stroke:#000000;stroke-width:1;"/><text fill="#000000" font-family="Verdana" font-size="14" lengthAdjust="spacing" textLength="69.2857" x="523.7871" y="819.5259">/api (REST)</text></g><!--entity WS--><g class="entity" data-qualified-name="Cloud Environment .Ubuntu VPS..Docker Network .Isolated..WS" data-source-line="22" id="ent0016"><ellipse cx="700.43" cy="787.56" fill="#FFFFFF" rx="8" ry="8" style="stroke:#000000;stroke-width:1;"/><text fill="#000000" font-family="Verdana" font-size="14" lengthAdjust="spacing" textLength="114.4915" x="643.1842" y="819.5259">/ws (WebSockets)</text></g><!--entity Teacher--><g class="entity" data-qualified-name="Teacher" data-source-line="4" id="ent0002"><ellipse cx="347.4319" cy="160.07" fill="#FFFFFF" rx="8" ry="8" style="stroke:#000000;stroke-width:1;"/><path d="M347.4319,168.07 L347.4319,195.07 M334.4319,176.07 L360.4319,176.07 M347.4319,195.07 L334.4319,210.07 M347.4319,195.07 L360.4319,210.07" fill="none" style="stroke:#000000;stroke-width:1;"/><text fill="#000000" font-family="Verdana" font-size="14" lengthAdjust="spacing" textLength="52.5838" x="321.14" y="227.0359">Teacher</text></g><!--entity Student--><g class="entity" data-qualified-name="Student" data-source-line="5" id="ent0003"><ellipse cx="613.4319" cy="160.07" fill="#FFFFFF" rx="8" ry="8" style="stroke:#000000;stroke-width:1;"/><path d="M613.4319,168.07 L613.4319,195.07 M600.4319,176.07 L626.4319,176.07 M613.4319,195.07 L600.4319,210.07 M613.4319,195.07 L626.4319,210.07" fill="none" style="stroke:#000000;stroke-width:1;"/><text fill="#000000" font-family="Verdana" font-size="14" lengthAdjust="spacing" textLength="51.6038" x="587.63" y="227.0359">Student</text></g><!--entity Admin--><g class="entity" data-qualified-name="Admin" data-source-line="6" id="ent0004"><ellipse cx="733.4318" cy="160.07" fill="#FFFFFF" rx="8" ry="8" style="stroke:#000000;stroke-width:1;"/><path d="M733.4318,168.07 L733.4318,195.07 M720.4318,176.07 L746.4318,176.07 M733.4318,195.07 L720.4318,210.07 M733.4318,195.07 L746.4318,210.07" fill="none" style="stroke:#000000;stroke-width:1;"/><text fill="#000000" font-family="Verdana" font-size="14" lengthAdjust="spacing" textLength="91.2237" x="687.82" y="227.0359">Administrator</text></g><!--entity Attacker--><g class="entity" data-qualified-name="Attacker" data-source-line="7" id="ent0005"><ellipse cx="653.4309" cy="19" fill="#FFFFFF" rx="8" ry="8" style="stroke:#000000;stroke-width:1;"/><path d="M653.4309,27 L653.4309,54 M640.4309,35 L666.4309,35 M653.4309,54 L640.4309,69 M653.4309,54 L666.4309,69" fill="none" style="stroke:#000000;stroke-width:1;"/><text fill="#000000" font-family="Verdana" font-size="14" lengthAdjust="spacing" textLength="54.7818" x="626.04" y="85.9659">Attacker</text></g><!--entity Mitm--><g class="entity" data-qualified-name="Mitm" data-source-line="8" id="ent0006"><ellipse cx="886.4338" cy="19" fill="#FFFFFF" rx="8" ry="8" style="stroke:#000000;stroke-width:1;"/><path d="M886.4338,27 L886.4338,54 M873.4338,35 L899.4338,35 M886.4338,54 L873.4338,69 M886.4338,54 L899.4338,69" fill="none" style="stroke:#000000;stroke-width:1;"/><text fill="#000000" font-family="Verdana" font-size="14" lengthAdjust="spacing" textLength="104.7476" x="834.06" y="85.9659">Attacker (MITM)</text></g><!--entity AI--><g class="entity" data-qualified-name="AI" data-source-line="30" id="ent0020"><path d="M1240.7806,771.7444 C1246.2559,765.6971 1250.8662,766.4247 1255.0898,773.147 C1259.4012,766.3177 1264.0946,764.453 1269.6673,771.855 C1273.8332,765.9825 1279.4692,766.1503 1282.9831,772.5617 C1286.626,765.1764 1293.1921,764.2428 1297.818,771.5706 C1301.751,765.4279 1308.7307,764.0981 1312.7109,771.5187 C1316.0911,765.234 1323.0762,765.61 1326.745,771.177 C1330.8141,764.8445 1336.1093,762.6978 1341.3639,769.8961 C1347.2384,762.6146 1352.5318,763.0531 1356.4695,771.7295 C1360.0493,765.9589 1364.2667,765.9352 1368.5222,770.9761 C1372.853,763.8277 1377.9243,763.8049 1382.7098,770.5105 C1388.5456,764.8497 1393.6196,765.0833 1397.2915,772.8589 C1401.4713,766.2551 1406.162,764.3898 1412.0184,770.9887 C1416.819,765.2026 1422.761,765.2431 1426.4683,772.226 C1430.8216,764.0296 1436.4023,764.9941 1441.6408,771.2998 C1450.1935,775.6007 1450.9751,783.4865 1443.3151,789.2958 C1450.0809,795.6104 1448.4177,801.415 1440.3835,804.9598 C1437.5086,811.5658 1431.2352,812.5744 1426.6606,806.8517 C1422.7573,813.8007 1416.3134,814.0256 1412.5642,806.6996 C1409.1281,813.262 1401.9616,815.5 1397.3188,808.0085 C1393.0394,814.6049 1388.0241,815.8191 1383.024,808.7631 C1379.1904,813.9766 1375.3896,815.4765 1370.8361,809.5507 C1365.539,816.9894 1360.7678,816.937 1355.0223,810.0454 C1351.1445,816.3279 1345.5887,816.7634 1341.1233,810.7073 C1335.1831,816.5512 1329.5435,817.1348 1326.115,808.163 C1321.2831,813.815 1317.2233,813.7657 1312.7153,807.7898 C1309.3318,815.0639 1302.539,815.2737 1298.3253,808.6494 C1293.4944,815.1109 1287.4707,815.1682 1284.13,807.185 C1279.6184,813.1073 1274.4883,814.6596 1269.6806,807.5124 C1264.009,814.4127 1257.3882,814.4712 1253.6588,805.546 C1249.7837,811.9231 1243.7982,812.9343 1239.8688,805.6006 C1230.3905,804.3126 1225.9144,798.432 1231.1391,789.2796 C1225.8171,779.0806 1230.5874,773.4126 1240.7806,771.7444" fill="#FFFFFF" style="stroke:#000000;stroke-width:1;"/><text fill="#000000" font-family="Verdana" font-size="14" lengthAdjust="spacing" textLength="187.1513" x="1245.86" y="792.9959">AI Provider (Gemini/OpenAI)</text></g><g class="entity" data-qualified-name="GMN37" data-source-line="54" id="ent0038"><path d="M1483.18,738.29 L1483.18,836.8201 L1725.6872,836.8201 L1725.6872,748.29 L1715.6872,738.29 L1483.18,738.29" fill="#FFFFFF" style="stroke:#000000;stroke-width:1;"/><path d="M1715.6872,738.29 L1715.6872,748.29 L1725.6872,748.29 L1715.6872,738.29" fill="#FFFFFF" style="stroke:#000000;stroke-width:1;"/><text fill="#000000" font-family="Verdana" font-size="13" lengthAdjust="spacing" textLength="115.2581" x="1489.18" y="757.187">Security Measures:</text><text fill="#000000" font-family="Verdana" font-size="13" lengthAdjust="spacing" textLength="198.4192" x="1489.18" y="774.893">- Token-Based Auth for Teachers</text><text fill="#000000" font-family="Verdana" font-size="13" lengthAdjust="spacing" textLength="221.5072" x="1489.18" y="792.599">- CORS Policies (ALLOWED_ORIGINS)</text><text fill="#000000" font-family="Verdana" font-size="13" lengthAdjust="spacing" textLength="172.5882" x="1489.18" y="810.3051">- Answer Gating (Anti-Cheat)</text><text fill="#000000" font-family="Verdana" font-size="13" lengthAdjust="spacing" textLength="189.2802" x="1489.18" y="828.0111">- Cooldowns on Student Events</text></g><g class="entity" data-qualified-name="GMN40" data-source-line="62" id="ent0041"><path d="M984.63,596.18 L984.63,597.8 L785.61,513.7 L984.63,605.8 L984.63,659.298 A0,0 0 0 0 984.63,659.298 L1096.2271,659.298 A0,0 0 0 0 1096.2271,659.298 L1096.2271,606.18 L1086.2271,596.18 L984.63,596.18 A0,0 0 0 0 984.63,596.18" fill="#FFFFFF" style="stroke:#000000;stroke-width:1;"/><path d="M1086.2271,596.18 L1086.2271,606.18 L1096.2271,606.18 L1086.2271,596.18" fill="#FFFFFF" style="stroke:#000000;stroke-width:1;"/><text fill="#000000" font-family="Verdana" font-size="13" lengthAdjust="spacing" textLength="80.5611" x="990.63" y="615.077">Rate limiting,</text><text fill="#000000" font-family="Verdana" font-size="13" lengthAdjust="spacing" textLength="84.8901" x="990.63" y="632.783">Port Blocking,</text><text fill="#000000" font-family="Verdana" font-size="13" lengthAdjust="spacing" textLength="90.5971" x="990.63" y="650.489">SSH Protection</text></g><g class="entity" data-qualified-name="GMN43" data-source-line="68" id="ent0044"><path d="M987.01,764.85 L987.01,810.262 L1195.8602,810.262 L1195.8602,774.85 L1185.8602,764.85 L987.01,764.85" fill="#FFFFFF" style="stroke:#000000;stroke-width:1;"/><path d="M1185.8602,764.85 L1185.8602,774.85 L1195.8602,774.85 L1185.8602,764.85" fill="#FFFFFF" style="stroke:#000000;stroke-width:1;"/><text fill="#000000" font-family="Verdana" font-size="13" lengthAdjust="spacing" textLength="187.8502" x="993.01" y="783.747">HTTPS/WSS termination blocks</text><text fill="#000000" font-family="Verdana" font-size="13" lengthAdjust="spacing" textLength="149.4352" x="993.01" y="801.453">passive MITM on transit.</text></g><!--link FastAPI to API--><g class="link" data-entity-1="ent0014" data-entity-2="ent0015" data-link-type="association" data-source-line="23" id="lnk17"><path d="M650.96,652.63 C637.49,662.85 622.7,675.59 611.43,689.29 C605.37,696.67 605.95,699.89 601.43,708.29 C587.48,734.24 570.55,764.78 562.75,778.81" fill="none" id="FastAPI-API" style="stroke:#000000;stroke-width:1;"/></g><!--link FastAPI to WS--><g class="link" data-entity-1="ent0014" data-entity-2="ent0016" data-link-type="association" data-source-line="24" id="lnk18"><path d="M715.13,652.66 C725.13,662.8 735.16,675.47 740.43,689.29 C753.3,723.08 722.34,762.79 707.64,779.05" fill="none" id="FastAPI-WS" style="stroke:#000000;stroke-width:1;"/></g><!--link Attacker to PortSSH--><g class="link" data-entity-1="ent0005" data-entity-2="ent0009" data-link-type="dependency" data-source-line="32" id="lnk21"><path d="M681.24,64.27 C713,80.65 764.65,111.3 796.43,151.07 C834.36,198.52 849.32,219.9 841.43,280.13 C837.35,311.24 827.6573,341.2287 822.2373,356.6687" fill="none" id="Attacker-to-PortSSH" style="stroke:#000000;stroke-width:1;stroke-dasharray:7,7;"/><polygon fill="#000000" points="820.25,362.33,827.0052,355.1629,821.9061,357.6122,819.4568,352.5131,820.25,362.33" style="stroke:#000000;stroke-width:1;"/><text fill="#000000" font-family="Verdana" font-size="13" lengthAdjust="spacing" textLength="70.8111" x="842.7" y="196.497">Brute Force</text></g><!--link Attacker to PortWeb--><g class="link" data-entity-1="ent0005" data-entity-2="ent0008" data-link-type="dependency" data-source-line="33" id="lnk22"><path d="M625.64,56.13 C581.7,65.85 497.49,91.61 461.43,151.07 C418.18,222.37 454.7453,326.4317 466.8653,356.6317" fill="none" id="Attacker-to-PortWeb" style="stroke:#000000;stroke-width:1;stroke-dasharray:7,7;"/><polygon fill="#000000" points="469.1,362.2,469.4602,352.3577,467.2377,357.5597,462.0357,355.3373,469.1,362.2" style="stroke:#000000;stroke-width:1;"/><text fill="#000000" font-family="Verdana" font-size="13" lengthAdjust="spacing" textLength="107.6921" x="462.43" y="196.497">App-Level Attacks</text></g><!--link Mitm to PortWeb--><g class="link" data-entity-1="ent0006" data-entity-2="ent0008" data-link-type="dependency" data-source-line="34" id="lnk23"><path d="M833.61,63.46 C796.07,71.93 744.37,82.88 698.43,90.07 C571.48,109.93 209.36,55.53 123.43,151.07 C11,276.05 393.1866,355.0438 457.6066,367.3538" fill="none" id="Mitm-to-PortWeb" style="stroke:#000000;stroke-width:1;stroke-dasharray:7,7;"/><polygon fill="#000000" points="463.5,368.48,455.4107,362.8618,458.5889,367.5415,453.9092,370.7197,463.5,368.48" style="stroke:#000000;stroke-width:1;"/><text fill="#000000" font-family="Verdana" font-size="13" lengthAdjust="spacing" textLength="178.6202" x="124.43" y="196.497">MITM / TLS stripping attempt</text></g><!--link Mitm to PortSSH--><g class="link" data-entity-1="ent0006" data-entity-2="ent0009" data-link-type="dependency" data-source-line="35" id="lnk24"><path d="M915.11,90.31 C926.28,107.96 937.75,129.62 943.43,151.07 C952.54,185.47 956.24,197.93 943.43,231.13 C918.93,294.65 855.3563,343.6462 831.0363,360.7662" fill="none" id="Mitm-to-PortSSH" style="stroke:#000000;stroke-width:1;stroke-dasharray:7,7;"/><polygon fill="#000000" points="826.13,364.22,835.7919,362.3102,830.2186,361.3419,831.1869,355.7685,826.13,364.22" style="stroke:#000000;stroke-width:1;"/><text fill="#000000" font-family="Verdana" font-size="13" lengthAdjust="spacing" textLength="155.3892" x="952.71" y="196.497">MITM on admin SSH path</text></g><!--link Teacher to PortWeb--><g class="link" data-entity-1="ent0002" data-entity-2="ent0008" data-link-type="dependency" data-source-line="37" id="lnk25"><path d="M326.86,231.52 C321.48,247.36 319.2,265.34 327.43,280.13 C357.97,335.03 431.5827,359.1367 457.9727,366.3567" fill="none" id="Teacher-to-PortWeb" style="stroke:#000000;stroke-width:1;"/><polygon fill="#000000" points="463.76,367.94,456.1346,361.7068,458.9372,366.6205,454.0235,369.4232,463.76,367.94" style="stroke:#000000;stroke-width:1;"/><text fill="#000000" font-family="Verdana" font-size="13" lengthAdjust="spacing" textLength="88.3351" x="328.43" y="276.027">Auth, Sessions</text></g><!--link Student to PortWeb--><g class="link" data-entity-1="ent0003" data-entity-2="ent0008" data-link-type="dependency" data-source-line="38" id="lnk26"><path d="M587.13,212.95 C578.81,219.14 569.43,225.7 560.43,231.13 C534.22,246.94 517.61,237.28 498.43,261.13 C473.56,292.06 471.7209,336.9208 472.0409,356.3008" fill="none" id="Student-to-PortWeb" style="stroke:#000000;stroke-width:1;"/><polygon fill="#000000" points="472.14,362.3,475.9909,353.2352,472.0575,357.3007,467.992,353.3673,472.14,362.3" style="stroke:#000000;stroke-width:1;"/><text fill="#000000" font-family="Verdana" font-size="13" lengthAdjust="spacing" textLength="72.3581" x="499.43" y="276.027">Join Session</text></g><!--link Admin to PortSSH--><g class="link" data-entity-1="ent0004" data-entity-2="ent0009" data-link-type="dependency" data-source-line="39" id="lnk27"><path d="M747.94,231.53 C753.89,246.88 761.1,264.5 768.43,280.13 C783.08,311.38 800.6137,341.7968 809.7237,357.1868" fill="none" id="Admin-to-PortSSH" style="stroke:#000000;stroke-width:1;"/><polygon fill="#000000" points="812.78,362.35,811.6377,352.5676,810.2331,358.0473,804.7534,356.6427,812.78,362.35" style="stroke:#000000;stroke-width:1;"/><text fill="#000000" font-family="Verdana" font-size="13" lengthAdjust="spacing" textLength="67.1321" x="769.43" y="276.027">Admin SSH</text></g><!--link Admin to PortWeb--><g class="link" data-entity-1="ent0004" data-entity-2="ent0008" data-link-type="dependency" data-source-line="40" id="lnk28"><path d="M687.37,223.52 C623.56,267.04 517.5167,339.3791 485.9667,360.8991" fill="none" id="Admin-to-PortWeb" style="stroke:#000000;stroke-width:1;"/><polygon fill="#000000" points="481.01,364.28,490.6991,362.5131,485.1406,361.4625,486.1911,355.9041,481.01,364.28" style="stroke:#000000;stroke-width:1;"/><text fill="#000000" font-family="Verdana" font-size="13" lengthAdjust="spacing" textLength="114.5951" x="627.31" y="276.027">Admin Web Access</text></g><!--link PortSSH to Firewall--><g class="link" data-entity-1="ent0009" data-entity-2="ent0010" data-link-type="dependency" data-source-line="42" id="lnk29"><path d="M811.52,380.08 C798.84,397.1 772.2026,432.887 752.7226,459.057" fill="none" id="PortSSH-to-Firewall" style="stroke:#000000;stroke-width:1;"/><polygon fill="#000000" points="749.14,463.87,757.7226,459.0389,752.1255,459.8592,751.3053,454.2621,749.14,463.87" style="stroke:#000000;stroke-width:1;"/></g><!--link PortWeb to Firewall--><g class="link" data-entity-1="ent0008" data-entity-2="ent0010" data-link-type="dependency" data-source-line="43" id="lnk30"><path d="M481.35,376.11 C511.86,389.72 608.2405,432.7155 672.1705,461.2355" fill="none" id="PortWeb-to-Firewall" style="stroke:#000000;stroke-width:1;"/><polygon fill="#000000" points="677.65,463.68,671.0604,456.3603,673.0838,461.6429,667.8012,463.6663,677.65,463.68" style="stroke:#000000;stroke-width:1;"/></g><!--link Firewall to Caddy--><g class="link" data-entity-1="ent0010" data-entity-2="ent0012" data-link-type="dependency" data-source-line="44" id="lnk31"><path d="M670.03,513.6 C644.78,524.28 615.62,537.72 590.43,552.2 C564.41,567.17 541.7076,583.5883 521.6976,599.1383" fill="none" id="Firewall-to-Caddy" style="stroke:#000000;stroke-width:1;"/><polygon fill="#000000" points="516.96,602.82,526.5209,600.4559,520.908,599.7519,521.612,594.1391,516.96,602.82" style="stroke:#000000;stroke-width:1;"/></g><!--link Caddy to Nginx--><g class="link" data-entity-1="ent0012" data-entity-2="ent0013" data-link-type="dependency" data-source-line="46" id="lnk32"><path d="M421.99,652.65 C406.3,661.65 391.48,673.62 382.43,689.29 C369.46,711.74 373.0754,736.3684 379.5154,757.1684" fill="none" id="Caddy-to-Nginx" style="stroke:#000000;stroke-width:1;"/><polygon fill="#000000" points="381.29,762.9,382.4492,753.1196,379.8112,758.1237,374.8071,755.4857,381.29,762.9" style="stroke:#000000;stroke-width:1;"/><text fill="#000000" font-family="Verdana" font-size="13" lengthAdjust="spacing" textLength="104.7021" x="383.43" y="704.187">Serves React App</text></g><!--link Caddy to API--><g class="link" data-entity-1="ent0012" data-entity-2="ent0015" data-link-type="dependency" data-source-line="47" id="lnk33"><path d="M489.61,652.48 C491.71,668.71 495.76,690.43 503.43,708.29 C515.62,736.68 535.1432,760.6461 547.0932,774.0861" fill="none" id="Caddy-to-API" style="stroke:#000000;stroke-width:1;"/><polygon fill="#000000" points="551.08,778.57,548.0891,769.1863,547.7577,774.8334,542.1105,774.502,551.08,778.57" style="stroke:#000000;stroke-width:1;"/><text fill="#000000" font-family="Verdana" font-size="13" lengthAdjust="spacing" textLength="92.4561" x="504.43" y="704.187">Proxy Pass /api</text></g><!--link Caddy to WS--><g class="link" data-entity-1="ent0012" data-entity-2="ent0016" data-link-type="dependency" data-source-line="48" id="lnk34"><path d="M543.05,652.68 C563.52,662.66 586.35,675.21 605.43,689.29 C643.42,717.32 676.2789,756.2371 690.4889,773.9771" fill="none" id="Caddy-to-WS" style="stroke:#000000;stroke-width:1;"/><polygon fill="#000000" points="694.24,778.66,691.7353,769.1349,691.1141,774.7576,685.4915,774.1364,694.24,778.66" style="stroke:#000000;stroke-width:1;"/><text fill="#000000" font-family="Verdana" font-size="13" lengthAdjust="spacing" textLength="90.259" x="629.42" y="704.187">Proxy Pass /ws</text></g><!--link FastAPI to SQLite--><g class="link" data-entity-1="ent0014" data-entity-2="ent0019" data-link-type="dependency" data-source-line="50" id="lnk35"><path d="M715.29,652.71 C751.31,682.63 807.9051,729.6356 843.6151,759.3056" fill="none" id="FastAPI-to-SQLite" style="stroke:#000000;stroke-width:1;"/><polygon fill="#000000" points="848.23,763.14,843.8638,754.3118,844.3842,759.9447,838.7514,760.4651,848.23,763.14" style="stroke:#000000;stroke-width:1;"/><text fill="#000000" font-family="Verdana" font-size="13" lengthAdjust="spacing" textLength="109.3301" x="782.43" y="704.187">Persist State/Logs</text></g><!--link FastAPI to AI--><g class="link" data-entity-1="ent0014" data-entity-2="ent0020" data-link-type="dependency" data-source-line="51" id="lnk36"><path d="M765.32,640.24 C869.44,656.52 1057.74,689.81 1213.43,738.29 C1236.02,745.33 1254.8124,752.1439 1276.0524,760.4539" fill="none" id="FastAPI-to-AI" style="stroke:#000000;stroke-width:1;"/><polygon fill="#000000" points="1281.64,762.64,1274.716,755.6358,1276.9837,760.8183,1271.8012,763.0859,1281.64,762.64" style="stroke:#000000;stroke-width:1;"/><text fill="#000000" font-family="Verdana" font-size="13" lengthAdjust="spacing" textLength="134.8361" x="1100.91" y="704.187">Prompt: Notes -&gt; Quiz</text></g><!--link FastAPI to GMN37--><g class="link" data-entity-1="ent0014" data-entity-2="ent0038" data-link-type="association" data-source-line="54" id="lnk39"><path d="M765.46,637.33 C821.77,643.46 899.25,651.88 967.43,659.29 C1190.22,683.52 1249.79,677.29 1465.43,738.29 C1471.21,739.93 1477.09,741.67 1483.02,743.48" fill="none" id="FastAPI-GMN37" style="stroke:#000000;stroke-width:1;stroke-dasharray:7,7;"/></g><!--link Caddy to GMN43--><g class="link" data-entity-1="ent0012" data-entity-2="ent0044" data-link-type="association" data-source-line="68" id="lnk45"><path d="M561.52,652.72 C571.17,655.25 580.99,657.54 590.43,659.29 C756.12,690.1 811.56,627.7 968.43,689.29 C1010.24,705.71 1049.25,741.37 1071.7,764.65" fill="none" id="Caddy-GMN43" style="stroke:#000000;stroke-width:1;stroke-dasharray:7,7;"/></g><?plantuml-src TPHDRzim38RFqQ_WV1XSe6w6jeUXXm9EshGPqZIDqkKuABRQ2BKbpwAJTiF--oZPpkTsCIpo4KcHh_G9bpANK6H2QMRVb2v4AN98J5uOBJLo_CWaL7bspfX8q9GGpAH8bh8CG5Xe_biNnogbJTxL_BUkECsLLXPBGKiFUCl6ZIYIjoPgkpXqGlWmd3sSUEP1OSwODgc4e9-PAeLRlLAbqJabXV1vKMciuFk44_wRTPH6MRw8XEY9AH6-VkbUNbv0E9UBEfwpqkAOF3-7aFFxBKKBnZgR3a7mF9Z3PnW8bPqlXFRSG9LoBRACmBh46-CFC9QuDkKRX4DhCe4ohQlRZTONQVe1uQGqxnyKTZRYTMfltqV7hqg_GpYWKwFKASH5KRFUmVRXWR0OJuOGzbmlTLgJZPNGdNDtHQ4WdDxoMGqT0slhMyVTgT3Mr9mJr6Q9ecRNZi41VwYgLA1O24jn-DD8eOJGMSxipumM5tMmsiC8J_nmWtW8r9ALIfqCxgGJK_Una3eUDZKE6Tle93gBhjjPmHK4lRAYD0DJ9ZBu1qKdSHIrBnh9bSmQ0Tg0EPKTSKw4q7MJ0TApAWgbNq4Wohp0morD0NwBqI2Svi4P2u7BWB7c0b5xzakfS7aAN5ghZAOwcijqY7qpBbfDqS5yy6W_SzncFFItcRpHBU8aeKXKKxlRaHiXjrlsZEsFjzO2PRL-dQ6M9-NWibn92rCwApgH1ZkGqmOXjTmdmbfmwjibvlmGMBigjyAwRjJYCLbQUcNezQ7RrHsPLq9toRZDHhEwWh51gelCJvNw5RZdXA8i3AB9mRniBmUNILKg_807AMnLIdl5EX7C3DsZg4TAfgj70uCNUgoQWLe7z1-dd7gTgKHHcZ0UZHxdjpS_7gV3k-6OdpWardPDuxyJw4GKnXfLr5zAWTxRDoPBpLfRfvrM0xSh-bhcBhohzxZgTZgTAVK0CfKh5_oKTVnxrileqjPhDsHg1Se4IK3_ZzWyFVUpsOHtvvm3FGIa6k5smSB5e-CMD1graj1AdLvwRHMURSF-1G00?></g></svg>