<?xml version="1.0" encoding="us-ascii" standalone="no"?><svg xmlns="http://www.w3.org/2000/svg" xmlns:xlink="http://www.w3.org/1999/xlink" contentStyleType="text/css" height="544px" preserveAspectRatio="none" style="width:614px;height:544px;background:#FFFFFF;" version="1.1" viewBox="0 0 614 544" width="614px" zoomAndPan="magnify"><defs/><g><line style="stroke:#000000;stroke-width:1.0;" x1="65" x2="65" y1="104.1358" y2="441.196"/><line style="stroke:#000000;stroke-width:1.0;" x1="186" x2="186" y1="104.1358" y2="441.196"/><line style="stroke:#000000;stroke-width:1.0;" x1="530" x2="530" y1="104.1358" y2="441.196"/><text fill="#000000" font-family="Verdana" font-size="14" lengthAdjust="spacing" textLength="54" x="35.5" y="80.9659">Teacher</text><text fill="#000000" font-family="Verdana" font-size="14" lengthAdjust="spacing" textLength="105" x="10" y="100.0339">(React/Electron)</text><ellipse cx="65.5" cy="14" fill="#FFFFFF" rx="8" ry="8" style="stroke:#000000;stroke-width:1.0;"/><path d="M65.5,22 L65.5,49 M52.5,30 L78.5,30 M65.5,49 L52.5,64 M65.5,49 L78.5,64 " fill="none" style="stroke:#000000;stroke-width:1.0;"/><text fill="#000000" font-family="Verdana" font-size="14" lengthAdjust="spacing" textLength="54" x="35.5" y="455.1619">Teacher</text><text fill="#000000" font-family="Verdana" font-size="14" lengthAdjust="spacing" textLength="105" x="10" y="474.2299">(React/Electron)</text><ellipse cx="65.5" cy="487.3318" fill="#FFFFFF" rx="8" ry="8" style="stroke:#000000;stroke-width:1.0;"/><path d="M65.5,495.3318 L65.5,522.3318 M52.5,503.3318 L78.5,503.3318 M65.5,522.3318 L52.5,537.3318 M65.5,522.3318 L78.5,537.3318 " fill="none" style="stroke:#000000;stroke-width:1.0;"/><text fill="#000000" font-family="Verdana" font-size="14" lengthAdjust="spacing" textLength="53" x="157" y="80.9659">Student</text><text fill="#000000" font-family="Verdana" font-size="14" lengthAdjust="spacing" textLength="105" x="131" y="100.0339">(React/Browser)</text><ellipse cx="186.5" cy="14" fill="#FFFFFF" rx="8" ry="8" style="stroke:#000000;stroke-width:1.0;"/><path d="M186.5,22 L186.5,49 M173.5,30 L199.5,30 M186.5,49 L173.5,64 M186.5,49 L199.5,64 " fill="none" style="stroke:#000000;stroke-width:1.0;"/><text fill="#000000" font-family="Verdana" font-size="14" lengthAdjust="spacing" textLength="53" x="157" y="455.1619">Student</text><text fill="#000000" font-family="Verdana" font-size="14" lengthAdjust="spacing" textLength="105" x="131" y="474.2299">(React/Browser)</text><ellipse cx="186.5" cy="487.3318" fill="#FFFFFF" rx="8" ry="8" style="stroke:#000000;stroke-width:1.0;"/><path d="M186.5,495.3318 L186.5,522.3318 M173.5,503.3318 L199.5,503.3318 M186.5,522.3318 L173.5,537.3318 M186.5,522.3318 L199.5,537.3318 " fill="none" style="stroke:#000000;stroke-width:1.0;"/><rect fill="#FFFFFF" height="52.1358" rx="2.5" ry="2.5" style="stroke:#000000;stroke-width:1.0;" width="155" x="453" y="51"/><text fill="#000000" font-family="Verdana" font-size="14" lengthAdjust="spacing" textLength="57" x="502" y="72.9659">Backend</text><text fill="#000000" font-family="Verdana" font-size="14" lengthAdjust="spacing" textLength="141" x="460" y="92.0339">(FastAPI WebSockets)</text><rect fill="#FFFFFF" height="52.1358" rx="2.5" ry="2.5" style="stroke:#000000;stroke-width:1.0;" width="155" x="453" y="440.196"/><text fill="#000000" font-family="Verdana" font-size="14" lengthAdjust="spacing" textLength="57" x="502" y="462.1619">Backend</text><text fill="#000000" font-family="Verdana" font-size="14" lengthAdjust="spacing" textLength="141" x="460" y="481.2299">(FastAPI WebSockets)</text><polygon fill="#000000" points="518.5,133.8419,528.5,137.8419,518.5,141.8419,522.5,137.8419" style="stroke:#000000;stroke-width:1.0;"/><line style="stroke:#000000;stroke-width:1.0;" x1="65.5" x2="524.5" y1="137.8419" y2="137.8419"/><text fill="#000000" font-family="Verdana" font-size="13" lengthAdjust="spacing" textLength="231" x="72.5" y="132.0328">POST /api/sessions/create {title, notes}</text><polygon fill="#000000" points="76.5,165.5479,66.5,169.5479,76.5,173.5479,72.5,169.5479" style="stroke:#000000;stroke-width:1.0;"/><line style="stroke:#000000;stroke-width:1.0;stroke-dasharray:2.0,2.0;" x1="70.5" x2="529.5" y1="169.5479" y2="169.5479"/><text fill="#000000" font-family="Verdana" font-size="13" lengthAdjust="spacing" textLength="215" x="82.5" y="163.7389">200 OK (Returns 6-digit JOINDCODE)</text><polygon fill="#000000" points="518.5,197.2539,528.5,201.2539,518.5,205.2539,522.5,201.2539" style="stroke:#000000;stroke-width:1.0;"/><line style="stroke:#000000;stroke-width:1.0;" x1="65.5" x2="524.5" y1="201.2539" y2="201.2539"/><text fill="#000000" font-family="Verdana" font-size="13" lengthAdjust="spacing" textLength="351" x="72.5" y="195.4449">HTTP GET /ws/{JOINCODE}?role=teacher&amp;name=Instructor</text><polygon fill="#000000" points="76.5,228.9599,66.5,232.9599,76.5,236.9599,72.5,232.9599" style="stroke:#000000;stroke-width:1.0;"/><line style="stroke:#000000;stroke-width:1.0;stroke-dasharray:2.0,2.0;" x1="70.5" x2="529.5" y1="232.9599" y2="232.9599"/><text fill="#000000" font-family="Verdana" font-size="13" lengthAdjust="spacing" textLength="291" x="82.5" y="227.1509">101 Switching Protocols (WebSocket Established)</text><polygon fill="#000000" points="518.5,260.6659,528.5,264.6659,518.5,268.6659,522.5,264.6659" style="stroke:#000000;stroke-width:1.0;"/><line style="stroke:#000000;stroke-width:1.0;" x1="186.5" x2="524.5" y1="264.6659" y2="264.6659"/><text fill="#000000" font-family="Verdana" font-size="13" lengthAdjust="spacing" textLength="250" x="193.5" y="258.8569">POST /api/sessions/join {code: JOINCODE}</text><polygon fill="#000000" points="197.5,292.3719,187.5,296.3719,197.5,300.3719,193.5,296.3719" style="stroke:#000000;stroke-width:1.0;"/><line style="stroke:#000000;stroke-width:1.0;stroke-dasharray:2.0,2.0;" x1="191.5" x2="529.5" y1="296.3719" y2="296.3719"/><text fill="#000000" font-family="Verdana" font-size="13" lengthAdjust="spacing" textLength="42" x="203.5" y="290.5629">200 OK</text><polygon fill="#000000" points="518.5,324.0779,528.5,328.0779,518.5,332.0779,522.5,328.0779" style="stroke:#000000;stroke-width:1.0;"/><line style="stroke:#000000;stroke-width:1.0;" x1="186.5" x2="524.5" y1="328.0779" y2="328.0779"/><text fill="#000000" font-family="Verdana" font-size="13" lengthAdjust="spacing" textLength="320" x="193.5" y="322.2689">HTTP GET /ws/{JOINCODE}?role=student&amp;name=Alice</text><polygon fill="#000000" points="197.5,355.784,187.5,359.784,197.5,363.784,193.5,359.784" style="stroke:#000000;stroke-width:1.0;"/><line style="stroke:#000000;stroke-width:1.0;stroke-dasharray:2.0,2.0;" x1="191.5" x2="529.5" y1="359.784" y2="359.784"/><text fill="#000000" font-family="Verdana" font-size="13" lengthAdjust="spacing" textLength="142" x="203.5" y="353.975">101 Switching Protocols</text><polygon fill="#000000" points="76.5,387.49,66.5,391.49,76.5,395.49,72.5,391.49" style="stroke:#000000;stroke-width:1.0;"/><line style="stroke:#000000;stroke-width:1.0;" x1="70.5" x2="529.5" y1="391.49" y2="391.49"/><text fill="#000000" font-family="Verdana" font-size="13" lengthAdjust="spacing" textLength="208" x="82.5" y="385.681">WS Emit "participant_joined" (Alice)</text><polygon fill="#000000" points="197.5,419.196,187.5,423.196,197.5,427.196,193.5,423.196" style="stroke:#000000;stroke-width:1.0;"/><line style="stroke:#000000;stroke-width:1.0;" x1="191.5" x2="529.5" y1="423.196" y2="423.196"/><text fill="#000000" font-family="Verdana" font-size="13" lengthAdjust="spacing" textLength="230" x="203.5" y="417.387">WS Emit "metrics" (current room state)</text><!--SRC=[VP5DJy9048Rl_HLZ3mOIIS631n8qLAgYYJHk4oucPjbEw6gxItQcuK3uxswfK2vussoUUJzchhZ02c5JIcs2G2gs3i8CfIhGVPhUXtznb9Ies5dJ3q4IP4TCS9sZuHCMExibT2qbWerqh9NUICCGnbBzeCaz-oI9f-aSbhWIrdyojGDn46Gmk8Tu3Eb2P139ZOu8YRGr52c7aX5shBd46p2MaVP130C_aOtXTZY4nHlu85mxGt0toFLQCxmkvk-pnyKiwNVgBrcMmdFY7ROKxHgY0VOFpfOuuRRwjP4LJkQ6sDLDsSvfD1o1s6fMXJPhI9rbgsn9q3lrWOHOhafD1URULbmkzMsrWPsoEOxXbEFFIXnBTGh_1gVs66tmQQaLTa8NCWSDSIYr591KVbtXsSs-cdIOXz0xgFLRM9p15RBJYZoXQkUyEJXhA_3jsUE_]--></g></svg>